<svg width="24" height="24" viewBox="0 0 24 24" fill="none" xmlns="http://www.w3.org/2000/svg">
<g clip-path="url(#clip0_339_50834)">
<path d="M3.51562 0C3.12698 0 2.8125 0.314484 2.8125 0.703125V2.10938C2.8125 2.49802 3.12698 2.8125 3.51562 2.8125C3.90427 2.8125 4.21875 2.49802 4.21875 2.10938V0.703125C4.21875 0.314484 3.90427 0 3.51562 0Z" fill="#4B4B4B"/>
<path d="M9.14062 0C8.75198 0 8.4375 0.314484 8.4375 0.703125V2.10938C8.4375 2.49802 8.75198 2.8125 9.14062 2.8125C9.52927 2.8125 9.84375 2.49802 9.84375 2.10938V0.703125C9.84375 0.314484 9.52927 0 9.14062 0Z" fill="#4B4B4B"/>
<path d="M14.8594 0C14.4707 0 14.1562 0.314484 14.1562 0.703125V2.10938C14.1562 2.49802 14.4707 2.8125 14.8594 2.8125C15.248 2.8125 15.5625 2.49802 15.5625 2.10938V0.703125C15.5625 0.314484 15.248 0 14.8594 0Z" fill="#4B4B4B"/>
<path d="M20.4844 0C20.0957 0 19.7812 0.314484 19.7812 0.703125V2.10938C19.7812 2.49802 20.0957 2.8125 20.4844 2.8125C20.873 2.8125 21.1875 2.49802 21.1875 2.10938V0.703125C21.1875 0.314484 20.873 0 20.4844 0Z" fill="#4B4B4B"/>
<path d="M22.5938 1.53577V2.10938C22.5938 3.27253 21.6475 4.21875 20.4844 4.21875C19.3212 4.21875 18.375 3.27253 18.375 2.10938V1.40625H16.9688V2.10938C16.9688 3.27253 16.0225 4.21875 14.8594 4.21875C13.6962 4.21875 12.75 3.27253 12.75 2.10938V1.40625H11.25V2.10938C11.25 3.27253 10.3038 4.21875 9.14062 4.21875C7.97747 4.21875 7.03125 3.27253 7.03125 2.10938V1.40625H5.625V2.10938C5.625 3.27253 4.67878 4.21875 3.51562 4.21875C2.35247 4.21875 1.40625 3.27253 1.40625 2.10938V1.53577C0.589594 1.827 0 2.60016 0 3.51562V4.92188V5.625H24V4.92188V3.51562C24 2.60016 23.4104 1.827 22.5938 1.53577Z" fill="#4B4B4B"/>
<path d="M12.7969 11.3438H11.2969V12.75H12.7969V11.3438Z" fill="#4B4B4B"/>
<path d="M7.07812 11.3438H5.67188V12.75H7.07812V11.3438Z" fill="#4B4B4B"/>
<path d="M7.07812 16.9688H5.67188V18.375H7.07812V16.9688Z" fill="#4B4B4B"/>
<path d="M12.7969 16.9688H11.2969V18.375H12.7969V16.9688Z" fill="#4B4B4B"/>
<path d="M0 7.03125V21.8906C0 23.0538 0.946219 24 2.10938 24H16.9344V17.6719C16.9344 17.2832 17.2489 16.9688 17.6376 16.9688H24V7.03125H0ZM8.48438 19.0781C8.48438 19.4668 8.16989 19.7812 7.78125 19.7812H4.96875C4.58011 19.7812 4.26562 19.4668 4.26562 19.0781V16.2656C4.26562 15.877 4.58011 15.5625 4.96875 15.5625H7.78125C8.16989 15.5625 8.48438 15.877 8.48438 16.2656V19.0781ZM8.48438 13.4531C8.48438 13.8418 8.16989 14.1562 7.78125 14.1562H4.96875C4.58011 14.1562 4.26562 13.8418 4.26562 13.4531V10.6406C4.26562 10.252 4.58011 9.9375 4.96875 9.9375H7.78125C8.16989 9.9375 8.48438 10.252 8.48438 10.6406V13.4531ZM14.2031 19.0781C14.2031 19.4668 13.8886 19.7812 13.5 19.7812H10.5938C10.2051 19.7812 9.89062 19.4668 9.89062 19.0781V16.2656C9.89062 15.877 10.2051 15.5625 10.5938 15.5625H13.5C13.8886 15.5625 14.2031 15.877 14.2031 16.2656V19.0781ZM14.2031 13.4531C14.2031 13.8418 13.8886 14.1562 13.5 14.1562H10.5938C10.2051 14.1562 9.89062 13.8418 9.89062 13.4531V10.6406C9.89062 10.252 10.2051 9.9375 10.5938 9.9375H13.5C13.8886 9.9375 14.2031 10.252 14.2031 10.6406V13.4531ZM19.8281 13.4531C19.8281 13.8418 19.5136 14.1562 19.125 14.1562H16.3125C15.9239 14.1562 15.6094 13.8418 15.6094 13.4531V10.6406C15.6094 10.252 15.9239 9.9375 16.3125 9.9375H19.125C19.5136 9.9375 19.8281 10.252 19.8281 10.6406V13.4531Z" fill="#4B4B4B"/>
<path d="M18.4219 11.3438H17.0156V12.75H18.4219V11.3438Z" fill="#4B4B4B"/>
<path d="M18.3406 18.375V22.0354L22.001 18.375H18.3406Z" fill="#4B4B4B"/>
<path d="M23.9895 18.375L18.3645 24H21.8905C23.0537 24 23.9999 23.0538 23.9999 21.8906V18.375H23.9895Z" fill="#4B4B4B"/>
</g>
<defs>
<clipPath id="clip0_339_50834">
<rect width="24" height="24" fill="white"/>
</clipPath>
</defs>
</svg>
