<svg width="24" height="24" viewBox="0 0 24 24" fill="none" xmlns="http://www.w3.org/2000/svg">
<g clip-path="url(#clip0_339_50374)">
<path d="M21.3271 4.43164C21.3271 6.04736 20.0173 7.35712 18.4018 7.35712C16.7861 7.35712 15.4763 6.04736 15.4763 4.43164C15.4763 2.8161 16.7861 1.50635 18.4018 1.50635C20.0173 1.50635 21.3271 2.8161 21.3271 4.43164Z" fill="#4B4B4B"/>
<path d="M13.3383 8.22089L11.9498 6.13879V2.58618C11.9498 1.16858 10.8065 0 9.3642 0H2.58618C1.15118 0 0 1.16162 0 2.58618V6.72803C0 8.14929 1.14697 9.31403 2.58618 9.31403H12.7533C13.3134 9.31403 13.6496 8.68781 13.3383 8.22089ZM5.95532 6.67822H3.73535C3.35669 6.67822 3.03094 6.3869 3.01337 6.00861C2.99487 5.60468 3.31604 5.27197 3.71576 5.27197H5.97528C6.37427 5.27197 6.69617 5.60468 6.67749 6.00842C6.6601 6.3869 6.33417 6.67822 5.95532 6.67822ZM8.23462 4.04205H3.73572C3.35724 4.04205 3.03168 3.75146 3.01355 3.37354C2.99414 2.9696 3.31567 2.6358 3.71576 2.6358H8.21466C8.59351 2.6358 8.91943 2.92712 8.93683 3.3056C8.95551 3.70935 8.63361 4.04205 8.23462 4.04205Z" fill="#4B4B4B"/>
<path d="M5.46021 17.4449C2.43182 17.4553 0 19.9554 0 22.9838V23.138C0 23.6142 0.385986 24.0002 0.862244 24.0002H10.0968C10.5731 24.0002 10.959 23.6142 10.959 23.138V22.9243C10.959 19.8915 8.49536 17.4342 5.46021 17.4449Z" fill="#4B4B4B"/>
<path d="M8.92993 13.9944C8.92993 15.9 7.38525 17.4448 5.47949 17.4448C3.57391 17.4448 2.02905 15.9 2.02905 13.9944C2.02905 12.0888 3.57391 10.5439 5.47949 10.5439C7.38525 10.5439 8.92993 12.0888 8.92993 13.9944Z" fill="#4B4B4B"/>
<path d="M22.8388 11.2968H13.9639C14.2255 9.07831 16.1122 7.35693 18.4016 7.35693C20.6904 7.35693 22.5771 9.07831 22.8388 11.2968Z" fill="#4B4B4B"/>
<path d="M23.2969 12.75C23.6852 12.75 24 13.0648 24 13.4531V21.7908C24 22.1902 23.6667 22.5123 23.2626 22.493C22.8849 22.4751 22.5938 22.1494 22.5938 21.7707V20.9874H12.0877C11.6151 19.3786 10.5703 18.0117 9.18896 17.1253C9.90417 16.2792 10.3365 15.186 10.3365 13.994C10.3365 13.5643 10.2801 13.1475 10.1746 12.75H23.2969Z" fill="#4B4B4B"/>
</g>
<defs>
<clipPath id="clip0_339_50374">
<rect width="24" height="24" fill="white"/>
</clipPath>
</defs>
</svg>
