<svg width="29" height="28" viewBox="0 0 29 28" fill="none" xmlns="http://www.w3.org/2000/svg">
<g id="measure-tape" clip-path="url(#clip0_2002_2212)">
<g id="Layer_x0020_1">
<path id="Vector" fill-rule="evenodd" clip-rule="evenodd" d="M17.3984 10.5547H15.4297V7.4375C15.4297 7.21875 15.2109 7.05469 14.9922 7.05469C14.7734 7.05469 14.6094 7.21875 14.6094 7.4375V10.5547H12.75V5.90625C12.75 5.6875 12.5859 5.46875 12.3672 5.46875C12.1484 5.46875 11.9297 5.6875 11.9297 5.90625V10.5547H10.1797V7.4375C10.1797 7.21875 9.96094 7.05469 9.74219 7.05469C9.52344 7.05469 9.35938 7.21875 9.35938 7.4375V10.5547H7.5V5.96094C7.5 5.6875 7.33594 5.52344 7.11719 5.52344C6.89844 5.52344 6.67969 5.6875 6.67969 5.96094V10.5547H4.875V7.4375C4.875 7.21875 4.71094 7.05469 4.49219 7.05469C4.21875 7.05469 4.05469 7.21875 4.05469 7.4375V10.5547H0.9375C0.664062 10.5547 0.5 10.3359 0.5 10.1172V4.59375C0.5 4.375 0.664062 4.21094 0.9375 4.21094H17.3984V10.5547ZM25.2188 4.21094H28.0625C28.3359 4.21094 28.5 4.375 28.5 4.59375V10.1172C28.5 10.3359 28.3359 10.5547 28.0625 10.5547H25.2188V4.21094Z" fill="#4B4B4B"/>
<path id="Vector_2" fill-rule="evenodd" clip-rule="evenodd" d="M24.0703 28H18.5469C18.3281 28 18.1641 27.8359 18.1641 27.6172V0.382812C18.1641 0.164062 18.3281 0 18.5469 0H24.0703C24.2891 0 24.4531 0.164062 24.4531 0.382812V13.1797H21.3906C21.1719 13.1797 21.0078 13.3984 21.0078 13.6172C21.0078 13.8359 21.1719 14 21.3906 14H24.4531V15.8047H19.8047C19.5859 15.8047 19.4219 15.9688 19.4219 16.2422C19.4219 16.4609 19.5859 16.625 19.8047 16.625H24.4531V18.4844H21.3906C21.1719 18.4844 21.0078 18.6484 21.0078 18.8672C21.0078 19.0859 21.1719 19.25 21.3906 19.25H24.4531V21.0547H19.8594C19.6406 21.0547 19.4766 21.2734 19.4766 21.4922C19.4766 21.7109 19.6406 21.875 19.8594 21.875H24.4531V23.6797H21.3906C21.1719 23.6797 21.0078 23.8984 21.0078 24.1172C21.0078 24.3359 21.1719 24.5 21.3906 24.5H24.4531V27.6172C24.4531 27.8359 24.2344 28 24.0703 28ZM21.2812 5.63281C20.2422 5.63281 19.4219 4.75781 19.4219 3.71875C19.4219 2.67969 20.2422 1.80469 21.2812 1.80469C22.375 1.80469 23.1953 2.67969 23.1953 3.71875C23.1953 4.75781 22.375 5.63281 21.2812 5.63281ZM21.2812 2.625C20.7344 2.625 20.1875 3.11719 20.1875 3.77344C20.1875 4.32031 20.7344 4.86719 21.2812 4.86719C21.9375 4.86719 22.4297 4.32031 22.4297 3.77344C22.375 3.11719 21.9375 2.625 21.2812 2.625Z" fill="#4B4B4B"/>
<path id="Vector_3" fill-rule="evenodd" clip-rule="evenodd" d="M15.5938 12.6328H3.89062C3.67188 12.6328 3.50781 12.4141 3.50781 12.1953C3.50781 11.9766 3.67188 11.8125 3.89062 11.8125H15.5938C15.8125 11.8125 15.9766 11.9766 15.9766 12.1953C15.9766 12.4141 15.7578 12.6328 15.5938 12.6328Z" fill="#4B4B4B"/>
<path id="Vector_4" fill-rule="evenodd" clip-rule="evenodd" d="M26.2031 25.1016C25.9844 25.1016 25.8203 24.9375 25.8203 24.6641V13.0156C25.8203 12.7969 25.9844 12.6328 26.2031 12.6328C26.4219 12.6328 26.6406 12.7969 26.6406 13.0156V24.7188C26.6406 24.9375 26.4219 25.1016 26.2031 25.1016Z" fill="#4B4B4B"/>
</g>
<g id="surface1">
<path id="Vector_5" d="M7.60895 19.7139C6.34818 19.7139 5.32251 20.7395 5.32251 22.0002C5.32251 23.261 6.34818 24.2867 7.60895 24.2867C8.86963 24.2867 9.89529 23.261 9.89529 22.0002C9.89529 20.7395 8.86963 19.7139 7.60895 19.7139ZM8.9664 21.5696L7.32843 23.2076C7.25967 23.2764 7.16949 23.3108 7.07941 23.3108C6.98932 23.3108 6.89923 23.2765 6.83047 23.2076L6.20453 22.5817C6.06702 22.4442 6.06702 22.2213 6.20453 22.0838C6.34195 21.9463 6.56488 21.9463 6.70239 22.0838L7.07941 22.4608L8.46854 21.0718C8.60596 20.9343 8.82889 20.9343 8.9664 21.0718C9.10391 21.2092 9.10391 21.4321 8.9664 21.5696Z" fill="#4B4B4B"/>
<path id="Vector_6" d="M12.7068 19.2559L12.7064 19.2466C12.7012 19.1313 12.6977 19.0094 12.6956 18.8737C12.6858 18.212 12.1598 17.6647 11.4981 17.6277C10.1184 17.5507 9.05105 17.1009 8.13909 16.212L8.13131 16.2046C7.83386 15.9318 7.38516 15.9318 7.08761 16.2046L7.07983 16.212C6.16787 17.1009 5.10055 17.5507 3.72085 17.6278C3.0592 17.6647 2.53314 18.212 2.52334 18.8738C2.52133 19.0085 2.51776 19.1305 2.51254 19.2466L2.51199 19.2683C2.48516 20.6752 2.45184 22.4261 3.03759 24.0154C3.35968 24.8893 3.84747 25.649 4.48733 26.2735C5.21609 26.9847 6.17062 27.5493 7.32437 27.9516C7.3619 27.9647 7.4009 27.9753 7.44064 27.9833C7.49667 27.9944 7.55307 28 7.60946 28C7.66586 28 7.72235 27.9944 7.77829 27.9833C7.81802 27.9753 7.8573 27.9646 7.89501 27.9514C9.04739 27.5484 10.0009 26.9835 10.729 26.2724C11.3686 25.6478 11.8564 24.8879 12.1788 24.0137C12.7667 22.4197 12.7335 20.6655 12.7068 19.2559ZM7.60928 24.9908C5.96023 24.9908 4.61871 23.6493 4.61871 22.0002C4.61871 20.3512 5.96023 19.0096 7.60928 19.0096C9.25823 19.0096 10.5998 20.3512 10.5998 22.0002C10.5998 23.6493 9.25823 24.9908 7.60928 24.9908Z" fill="#4B4B4B"/>
</g>
</g>
<defs>
<clipPath id="clip0_2002_2212">
<rect width="28" height="28" fill="white" transform="translate(0.5)"/>
</clipPath>
</defs>
</svg>
