<svg width="28" height="28" viewBox="0 0 28 28" fill="none" xmlns="http://www.w3.org/2000/svg">
<g id="meeting" clip-path="url(#clip0_2002_1129)">
<g id="Group">
<g id="Group_2">
<path id="Vector" d="M4.9225 4.15625C3.56554 4.15625 2.46167 5.26006 2.46167 6.61708C2.46167 7.97404 3.56554 9.07791 4.9225 9.07791C6.27946 9.07791 7.38333 7.97404 7.38333 6.61708C7.38333 5.26012 6.27946 4.15625 4.9225 4.15625Z" fill="#4B4B4B"/>
</g>
</g>
<g id="Group_3">
<g id="Group_4">
<path id="Vector_2" d="M17.3361 0H10.6644C9.30748 0 8.20361 1.15855 8.20361 2.51552V4.15609C8.20361 5.51305 9.30748 6.61691 10.6644 6.61691H13.6606L16.7561 9.6577C16.9929 9.8945 17.3476 9.96177 17.6501 9.83555C17.9569 9.709 18.1564 9.40937 18.1564 9.07774V6.47675C19.1112 6.13791 19.7969 5.2255 19.7969 4.15609V2.51552C19.7969 1.15855 18.6931 0 17.3361 0Z" fill="#4B4B4B"/>
</g>
</g>
<g id="Group_5">
<g id="Group_6">
<path id="Vector_3" d="M13.0765 25.9607L10.6156 18.5227C10.433 17.7914 9.77853 17.2811 9.02395 17.2811C8.43026 17.2811 7.97706 17.2811 7.38338 17.2811C6.93035 17.2811 6.56312 16.9138 6.56312 16.4608C6.56312 16.0078 6.9304 15.6405 7.38338 15.6405C8.25635 15.6405 8.98539 15.6405 9.84421 15.6405C10.7503 15.6405 11.4848 14.906 11.4848 14C11.4848 13.0939 10.7503 12.3594 9.84421 12.3594H5.32691L4.74952 10.8062C4.47635 10.2606 3.90361 9.9082 3.26273 9.9082C2.52981 9.91542 1.86891 10.4353 1.69024 11.141L0.0496739 18.5235C-0.206865 19.5512 0.562369 20.5439 1.61729 20.5594L0.0256661 26.9804C-0.0848573 27.4194 0.182674 27.8648 0.622471 27.9745C1.05871 28.0849 1.50644 27.8202 1.61658 27.3777L2.28147 24.7182H9.17893L9.8931 26.7569C10.1362 27.7261 11.0946 28.1529 11.883 27.9497C12.7596 27.731 13.2958 26.8411 13.0765 25.9607ZM2.69157 23.0777L3.25715 20.7609C3.27405 20.6938 3.26645 20.6283 3.26645 20.5622C4.83073 20.5622 6.87615 20.5622 7.74224 20.5622L8.60428 23.0777H2.69157Z" fill="#4B4B4B"/>
</g>
</g>
<g id="Group_7">
<g id="Group_8">
<path id="Vector_4" d="M23.0775 4.15625C21.7206 4.15625 20.6167 5.26012 20.6167 6.61708C20.6167 7.97404 21.7206 9.07791 23.0775 9.07791C24.4345 9.07791 25.5384 7.97404 25.5384 6.61708C25.5384 5.26012 24.4345 4.15625 23.0775 4.15625Z" fill="#4B4B4B"/>
</g>
</g>
<g id="Group_9">
<g id="Group_10">
<path id="Vector_5" d="M26.3826 20.5595C27.4375 20.544 28.2067 19.5514 27.9502 18.5236L26.3096 11.141C26.131 10.4353 25.4701 9.91542 24.7371 9.9082C24.0963 9.9082 23.5236 10.2607 23.2504 10.8062L22.673 12.3594H18.1556C17.2495 12.3594 16.515 13.0939 16.515 14C16.515 14.906 17.2495 15.6405 18.1556 15.6405C19.0144 15.6405 19.7435 15.6405 20.6164 15.6405C21.0695 15.6405 21.4367 16.0078 21.4367 16.4608C21.4367 16.9138 21.0694 17.2811 20.6164 17.2811C20.0228 17.2811 19.5694 17.2811 18.9759 17.2811C18.2213 17.2811 17.5668 17.7914 17.3842 18.5227L14.9234 25.9607C14.7041 26.8411 15.2403 27.731 16.1169 27.9498C16.9052 28.1529 17.8636 27.7262 18.1068 26.757L18.8209 24.7183H25.7184L26.3833 27.3778C26.4934 27.8202 26.9412 28.085 27.3774 27.9746C27.8172 27.8648 28.0847 27.4195 27.9742 26.9805L26.3826 20.5595ZM19.3956 23.0778L20.2577 20.5568C21.1237 20.5568 23.1691 20.5568 24.7335 20.5568C24.7335 20.6229 24.7259 20.6884 24.7428 20.7555L25.3084 23.0778H19.3956Z" fill="#4B4B4B"/>
</g>
</g>
</g>
<defs>
<clipPath id="clip0_2002_1129">
<rect width="28" height="28" fill="white"/>
</clipPath>
</defs>
</svg>
