<svg width="29" height="28" viewBox="0 0 29 28" fill="none" xmlns="http://www.w3.org/2000/svg">
<g id="model" clip-path="url(#clip0_2002_3395)">
<path id="Vector" d="M8.75781 20.0529V27.9957L13.6824 25.1815L13.6813 17.2305L8.75781 20.0529Z" fill="#4B4B4B"/>
<path id="Vector_2" d="M6.33467 12.0811L1.31982 14.9177L7.93318 18.6348H7.93373L12.8507 15.8162L6.33467 12.0811Z" fill="#4B4B4B"/>
<path id="Vector_3" d="M13.6802 8.71953L7.17188 4.95703V10.6697L13.6808 14.4005L13.6802 8.71953Z" fill="#4B4B4B"/>
<path id="Vector_4" d="M0.5 23.7895C0.5 24.0854 0.659688 24.3588 0.917266 24.5043L7.11719 27.9999V20.0576L0.5 16.3389V23.7895Z" fill="#4B4B4B"/>
<path id="Vector_5" d="M14.9024 0.10541C14.6525 -0.0351367 14.3473 -0.0351367 14.0974 0.10541L7.99756 3.53924L14.4983 7.29791L21.0028 3.53978L14.9024 0.10541Z" fill="#4B4B4B"/>
<path id="Vector_6" d="M22.6654 12.0811L16.1499 15.8162L21.0669 18.6348L27.6808 14.9177L22.6654 12.0811Z" fill="#4B4B4B"/>
<path id="Vector_7" d="M21.8828 20.0576V27.9966L28.086 24.4589C28.342 24.3128 28.5 24.0411 28.5 23.7463V16.3389L21.8828 20.0576Z" fill="#4B4B4B"/>
<path id="Vector_8" d="M15.3231 25.1823L20.2423 27.996V20.0532L15.322 17.2324L15.3231 25.1823Z" fill="#4B4B4B"/>
<path id="Vector_9" d="M21.8281 4.95703L15.3208 8.7168L15.3213 14.3994L21.8281 10.6697V4.95703Z" fill="#4B4B4B"/>
</g>
<defs>
<clipPath id="clip0_2002_3395">
<rect width="28" height="28" fill="white" transform="translate(0.5)"/>
</clipPath>
</defs>
</svg>
