<svg width="28" height="28" viewBox="0 0 28 28" fill="none" xmlns="http://www.w3.org/2000/svg">
<g id="notepad">
<g id="Group">
<path id="Vector" d="M16.3729 22.5818L13.4556 23.9078C13.1665 24.0392 12.8611 24.1058 12.5476 24.1058C12.1732 24.1058 11.8135 24.0105 11.4964 23.8357C11.4807 23.8365 11.465 23.8381 11.449 23.8381H5.25757C4.80454 23.8381 4.43726 23.4708 4.43726 23.0177C4.43726 22.5647 4.80454 22.1974 5.25757 22.1974H10.3793C10.328 21.8004 10.3866 21.3904 10.559 21.0113L10.7655 20.5568H5.25757C4.80454 20.5568 4.43726 20.1895 4.43726 19.7365C4.43726 19.2835 4.80454 18.9162 5.25757 18.9162H11.5112L11.889 18.0852C11.89 18.083 11.8911 18.0812 11.8921 18.0791C11.9725 17.9041 12.0836 17.7428 12.2225 17.6039L12.5509 17.2756H5.25757C4.80454 17.2756 4.43726 16.9083 4.43726 16.4552C4.43726 16.0022 4.80454 15.6349 5.25757 15.6349H14.1915L15.8321 13.9944H5.25757C4.80454 13.9944 4.43726 13.6271 4.43726 13.1741C4.43726 12.721 4.80454 12.3537 5.25757 12.3537H17.4727L21.7233 8.10327L21.7421 8.08445V3.66412C21.7421 3.21109 21.3749 2.8438 20.9218 2.8438H19.0078V0.820312C19.0078 0.367281 18.6405 0 18.1874 0C17.7344 0 17.3671 0.367281 17.3671 0.820312V2.84375H15.6484V0.820312C15.6484 0.367281 15.2811 0 14.828 0C14.375 0 14.0077 0.367281 14.0077 0.820312V2.84375H12.2889V0.820312C12.2889 0.367281 11.9216 0 11.4686 0C11.0156 0 10.6483 0.367281 10.6483 0.820312V2.84375H8.92951V0.820312C8.92951 0.367281 8.56223 0 8.10919 0C7.65616 0 7.28888 0.367281 7.28888 0.820312V2.84375H5.57011V0.820312C5.57011 0.367281 5.20283 0 4.74979 0C4.29676 0 3.92948 0.367281 3.92948 0.820312V2.84375H1.97632C1.52329 2.84375 1.15601 3.21103 1.15601 3.66406V25.5391C1.15601 26.896 2.25998 28 3.61694 28H19.2812C20.6382 28 21.7421 26.896 21.7421 25.5391V17.3651L16.8629 22.2443C16.7171 22.3901 16.5505 22.5023 16.3729 22.5818ZM11.4686 10.7131H5.25757C4.80454 10.7131 4.43726 10.3458 4.43726 9.89281C4.43726 9.43977 4.80454 9.07249 5.25757 9.07249H11.4686C11.9216 9.07249 12.2889 9.43977 12.2889 9.89281C12.2889 10.3459 11.9216 10.7131 11.4686 10.7131Z" fill="#4B4B4B"/>
<path id="Vector_2" d="M21.7233 10.4238L13.3826 18.7644L12.0526 21.6905C11.8435 22.1505 12.3168 22.6237 12.7768 22.4147L15.7029 21.0847L24.0435 12.744L21.7233 10.4238Z" fill="#4B4B4B"/>
<path id="Vector_3" d="M26.3636 8.10359C25.7228 7.46287 24.6841 7.46287 24.0434 8.10359L22.8833 9.26367L25.2035 11.5838L26.3636 10.4238C27.0042 9.78304 27.0042 8.7443 26.3636 8.10359Z" fill="#4B4B4B"/>
</g>
</g>
</svg>
