<svg width="24" height="24" viewBox="0 0 24 24" fill="none" xmlns="http://www.w3.org/2000/svg">
<g clip-path="url(#clip0_339_49442)">
<path d="M14.25 0H2.75C1.23 0 0 1.23 0 2.75V18.25C0 19.77 1.23 21 2.75 21H10.13L10.35 19.77C10.45 19.21 10.71 18.71 11.11 18.3L17 12.42V2.75C17 1.23 15.77 0 14.25 0ZM4 4H8C8.55 4 9 4.45 9 5C9 5.55 8.55 6 8 6H4C3.45 6 3 5.55 3 5C3 4.45 3.45 4 4 4ZM9 14H4C3.45 14 3 13.55 3 13C3 12.45 3.45 12 4 12H9C9.55 12 10 12.45 10 13C10 13.55 9.55 14 9 14ZM13 10H4C3.45 10 3 9.55 3 9C3 8.45 3.45 8 4 8H13C13.55 8 14 8.45 14 9C14 9.55 13.55 10 13 10Z" fill="#4B4B4B"/>
<path d="M12.5281 24.0001C12.3311 24.0001 12.1391 23.9221 11.9981 23.7801C11.8251 23.6071 11.7471 23.3611 11.7901 23.1191L12.3201 20.1141C12.3461 19.9631 12.4201 19.8231 12.5281 19.7141L19.9531 12.2901C20.8651 11.3761 21.7611 11.6231 22.2511 12.1131L23.4881 13.3501C24.1711 14.0321 24.1711 15.1421 23.4881 15.8251L16.0631 23.2501C15.9551 23.3591 15.8151 23.4321 15.6631 23.4581L12.6581 23.9881C12.6151 23.9961 12.5711 24.0001 12.5281 24.0001Z" fill="#4B4B4B"/>
</g>
<defs>
<clipPath id="clip0_339_49442">
<rect width="24" height="24" fill="white"/>
</clipPath>
</defs>
</svg>
