<svg width="16" height="16" viewBox="0 0 16 16" fill="none" xmlns="http://www.w3.org/2000/svg">
<path d="M4.1551 8.17202L9.7281 13.482C9.82109 13.5707 9.94463 13.6201 10.0731 13.6201C10.2016 13.6201 10.3251 13.5707 10.4181 13.482L10.4241 13.476C10.4693 13.433 10.5054 13.3813 10.53 13.324C10.5546 13.2667 10.5673 13.2049 10.5673 13.1425C10.5673 13.0801 10.5546 13.0184 10.53 12.9611C10.5054 12.9037 10.4693 12.852 10.4241 12.809L5.1761 7.80902L10.4241 2.81102C10.4693 2.76805 10.5054 2.71632 10.53 2.65899C10.5546 2.60166 10.5673 2.53992 10.5673 2.47752C10.5673 2.41513 10.5546 2.35339 10.53 2.29605C10.5054 2.23872 10.4693 2.187 10.4241 2.14402L10.4181 2.13802C10.3251 2.04938 10.2016 1.99993 10.0731 1.99993C9.94463 1.99993 9.82109 2.04938 9.7281 2.13802L4.1551 7.44802C4.10609 7.49472 4.06707 7.55088 4.04041 7.61311C4.01375 7.67533 4 7.74233 4 7.81002C4 7.87772 4.01375 7.94471 4.04041 8.00694C4.06707 8.06916 4.10609 8.12532 4.1551 8.17202Z" fill="#F7F5F5"/>
</svg>
