<svg width="16" height="17" viewBox="0 0 16 17" fill="none" xmlns="http://www.w3.org/2000/svg">
<path d="M11.8449 8.52329L6.2719 3.21329C6.17891 3.12465 6.05537 3.0752 5.9269 3.0752C5.79843 3.0752 5.67489 3.12465 5.5819 3.21329L5.5759 3.21929C5.53066 3.26226 5.49465 3.31399 5.47003 3.37132C5.44542 3.42866 5.43272 3.4904 5.43272 3.55279C5.43272 3.61518 5.44542 3.67692 5.47003 3.73426C5.49465 3.79159 5.53066 3.84332 5.5759 3.88629L10.8239 8.88629L5.5759 13.8843C5.53066 13.9273 5.49465 13.979 5.47003 14.0363C5.44542 14.0937 5.43272 14.1554 5.43272 14.2178C5.43272 14.2802 5.44542 14.3419 5.47003 14.3993C5.49465 14.4566 5.53066 14.5083 5.5759 14.5513L5.5819 14.5573C5.67489 14.6459 5.79843 14.6954 5.9269 14.6954C6.05537 14.6954 6.17891 14.6459 6.2719 14.5573L11.8449 9.24729C11.8939 9.20059 11.9329 9.14443 11.9596 9.0822C11.9863 9.01998 12 8.95299 12 8.88529C12 8.81759 11.9863 8.7506 11.9596 8.68838C11.9329 8.62615 11.8939 8.56999 11.8449 8.52329Z" fill="white"/>
</svg>
