<svg width="16" height="16" viewBox="0 0 16 16" fill="none" xmlns="http://www.w3.org/2000/svg">
<path d="M11.8449 7.82798L6.2719 2.51798C6.17891 2.42933 6.05537 2.37988 5.9269 2.37988C5.79843 2.37988 5.67489 2.42933 5.5819 2.51798L5.5759 2.52398C5.53066 2.56695 5.49465 2.61868 5.47003 2.67601C5.44542 2.73334 5.43272 2.79508 5.43272 2.85748C5.43272 2.91987 5.44542 2.98161 5.47003 3.03895C5.49465 3.09628 5.53066 3.148 5.5759 3.19098L10.8239 8.19098L5.5759 13.189C5.53066 13.232 5.49465 13.2837 5.47003 13.341C5.44542 13.3983 5.43272 13.4601 5.43272 13.5225C5.43272 13.5849 5.44542 13.6466 5.47003 13.7039C5.49465 13.7613 5.53066 13.813 5.5759 13.856L5.5819 13.862C5.67489 13.9506 5.79843 14.0001 5.9269 14.0001C6.05537 14.0001 6.17891 13.9506 6.2719 13.862L11.8449 8.55198C11.8939 8.50528 11.9329 8.44912 11.9596 8.38689C11.9863 8.32467 12 8.25767 12 8.18998C12 8.12228 11.9863 8.05529 11.9596 7.99306C11.9329 7.93084 11.8939 7.87468 11.8449 7.82798Z" fill="white"/>
</svg>
