<svg width="20" height="20" viewBox="0 0 20 20" fill="none" xmlns="http://www.w3.org/2000/svg">
<path d="M9.23077 5.83366H10.7692C10.7692 5.61265 10.6882 5.40068 10.5439 5.2444C10.3997 5.08812 10.204 5.00033 10 5.00033C9.79599 5.00033 9.60033 5.08812 9.45607 5.2444C9.31181 5.40068 9.23077 5.61265 9.23077 5.83366ZM8.46154 5.83366C8.46154 5.39163 8.62363 4.96771 8.91214 4.65515C9.20066 4.34259 9.59197 4.16699 10 4.16699C10.408 4.16699 10.7993 4.34259 11.0879 4.65515C11.3764 4.96771 11.5385 5.39163 11.5385 5.83366H14.6154C14.7174 5.83366 14.8152 5.87756 14.8873 5.9557C14.9595 6.03384 15 6.13982 15 6.25033C15 6.36083 14.9595 6.46681 14.8873 6.54495C14.8152 6.62309 14.7174 6.66699 14.6154 6.66699H14.1815L13.2546 14.032C13.1917 14.5311 12.9641 14.9886 12.6138 15.3199C12.2635 15.6511 11.8142 15.8337 11.3492 15.8337H8.65077C8.18578 15.8337 7.73655 15.6511 7.38623 15.3199C7.03592 14.9886 6.80825 14.5311 6.74538 14.032L5.81846 6.66699H5.38462C5.28261 6.66699 5.18478 6.62309 5.11265 6.54495C5.04052 6.46681 5 6.36083 5 6.25033C5 6.13982 5.04052 6.03384 5.11265 5.9557C5.18478 5.87756 5.28261 5.83366 5.38462 5.83366H8.46154ZM9.23077 8.75033C9.23077 8.63982 9.19025 8.53384 9.11812 8.4557C9.04599 8.37756 8.94816 8.33366 8.84615 8.33366C8.74415 8.33366 8.64632 8.37756 8.57419 8.4557C8.50206 8.53384 8.46154 8.63982 8.46154 8.75033V12.917C8.46154 13.0275 8.50206 13.1335 8.57419 13.2116C8.64632 13.2898 8.74415 13.3337 8.84615 13.3337C8.94816 13.3337 9.04599 13.2898 9.11812 13.2116C9.19025 13.1335 9.23077 13.0275 9.23077 12.917V8.75033ZM11.1538 8.33366C11.2559 8.33366 11.3537 8.37756 11.4258 8.4557C11.4979 8.53384 11.5385 8.63982 11.5385 8.75033V12.917C11.5385 13.0275 11.4979 13.1335 11.4258 13.2116C11.3537 13.2898 11.2559 13.3337 11.1538 13.3337C11.0518 13.3337 10.954 13.2898 10.8819 13.2116C10.8098 13.1335 10.7692 13.0275 10.7692 12.917V8.75033C10.7692 8.63982 10.8098 8.53384 10.8819 8.4557C10.954 8.37756 11.0518 8.33366 11.1538 8.33366ZM7.50769 13.9195C7.54544 14.2189 7.68203 14.4934 7.89219 14.6921C8.10234 14.8908 8.37183 15.0003 8.65077 15.0003H11.3492C11.6283 15.0005 11.898 14.8911 12.1083 14.6923C12.3186 14.4936 12.4553 14.219 12.4931 13.9195L13.4054 6.66699H6.59462L7.50769 13.9195Z" fill="#4B4B4B"/>
</svg>
