<svg width="220" height="220" viewBox="0 0 220 220" fill="none" xmlns="http://www.w3.org/2000/svg">
<g clip-path="url(#clip0_153_12128)">
<path d="M183.245 27.2852C162.98 27.2852 146.489 43.7766 146.489 64.0449C146.489 75.7367 151.976 86.1738 160.505 92.9113L121.975 121.163C121.309 121.653 120.764 122.07 120.308 122.422C120.205 122.504 120.098 122.586 119.99 122.667C119.887 122.586 119.78 122.504 119.677 122.427C119.221 122.074 118.68 121.653 118.014 121.168L43.5583 66.5655V64.7165C43.5583 60.3939 47.074 56.8773 51.3949 56.8773H136.473C138.254 56.8773 139.696 55.4344 139.696 53.6546C139.696 51.8749 138.254 50.432 136.473 50.432H51.3949C43.5196 50.432 37.113 56.8399 37.113 64.7165V74.0055H30.1774C22.4095 74.0055 16.0901 80.3318 16.0901 88.1074V102.087H3.49078C1.71102 102.087 0.268125 103.53 0.268125 105.31C0.268125 107.089 1.71102 108.532 3.49078 108.532H16.0901V129.583H3.22266C1.44289 129.583 0 131.026 0 132.806C0 134.585 1.44289 136.028 3.22266 136.028H16.0901V160.893H3.22266C1.44289 160.893 0 162.336 0 164.115C0 165.895 1.44289 167.338 3.22266 167.338H16.0901V178.613C16.0901 186.388 22.4099 192.714 30.1774 192.714H70.7493C72.5291 192.714 73.972 191.272 73.972 189.492C73.972 187.712 72.5291 186.269 70.7493 186.269H30.9448L57.3268 169.238H155.5L181.634 186.103C181.124 186.211 180.596 186.27 180.054 186.27H85.6337C83.854 186.27 82.4111 187.712 82.4111 189.492C82.4111 191.272 83.854 192.715 85.6337 192.715H180.054C187.822 192.715 194.141 186.389 194.141 178.613V168.854C200.445 167.365 205.152 161.695 205.152 154.942V93.546C214.157 86.839 220 76.1127 220 64.0449C220 43.7766 203.513 27.2852 183.245 27.2852ZM43.5583 74.5607L57.432 84.7387L97.7221 114.28L43.5583 149.253V74.5607ZM22.5354 88.1078C22.5354 83.8862 25.9639 80.4512 30.1774 80.4512H37.113V129.583H22.5354V88.1078ZM23.9895 183.088C23.0789 181.827 22.5354 180.284 22.5354 178.613V136.029H37.113V154.942C37.113 161.174 41.1181 166.484 46.6855 168.437L23.9895 183.088ZM187.696 178.613C187.696 179.778 187.427 180.88 186.96 181.87L167.386 169.239H187.696V178.613ZM190.858 162.794H51.3949C47.7065 162.794 44.6127 160.224 43.7839 156.78L103.286 118.36L114.202 126.367C114.817 126.814 115.32 127.205 115.741 127.527C117.468 128.863 118.727 129.529 119.99 129.529C121.249 129.529 122.513 128.863 124.24 127.531C124.661 127.205 125.164 126.818 125.787 126.367L137.93 117.456L198.532 156.584C197.774 160.127 194.623 162.794 190.858 162.794ZM198.707 149.025L143.493 113.376L166.298 96.6582C171.372 99.3094 177.134 100.809 183.245 100.809C188.766 100.809 194.003 99.5771 198.707 97.3861V149.025ZM183.245 94.3637C179.369 94.3637 175.661 93.6332 172.249 92.2969C170.006 91.4246 167.892 90.2859 165.945 88.9238C158.086 83.441 152.934 74.3359 152.934 64.0449C152.934 47.3301 166.534 33.7305 183.245 33.7305C199.959 33.7305 213.555 47.3301 213.555 64.0449C213.555 80.7641 199.959 94.3637 183.245 94.3637Z" fill="#B3A384"/>
<path d="M197.781 51.9413C196.43 50.7811 194.396 50.9362 193.237 52.2859L178.742 69.1576L172.904 64.1676C171.55 63.0113 169.516 63.1707 168.36 64.5238C167.204 65.8769 167.363 67.911 168.716 69.0673L176.998 76.1456C177.605 76.6646 178.35 76.9181 179.09 76.9181C179.997 76.9181 180.899 76.5374 181.536 75.7954L198.125 56.4856C199.285 55.1356 199.131 53.101 197.781 51.9413Z" fill="#B3A384"/>
</g>
<defs>
<clipPath id="clip0_153_12128">
<rect width="220" height="220" fill="white"/>
</clipPath>
</defs>
</svg>
