<svg width="37" height="36" viewBox="0 0 37 36" fill="none" xmlns="http://www.w3.org/2000/svg">
<rect x="0.5" width="36" height="36" rx="3.6" fill="#564073" fill-opacity="0.35"/>
<g clip-path="url(#clip0_1_201)">
<path d="M24.3475 22.5502H21.6425C21.3784 22.5502 21.1635 22.3354 21.1635 22.0712C21.1635 21.8071 21.3784 21.5922 21.6425 21.5922H23.4459C24.1761 21.5922 24.7702 20.9981 24.7702 20.2679C24.7702 20.0345 24.581 19.8452 24.3475 19.8452C24.1141 19.8452 23.9249 20.0345 23.9249 20.2679C23.9249 20.532 23.71 20.7469 23.4459 20.7469H21.6425C20.9123 20.7469 20.3182 21.341 20.3182 22.0712C20.3182 22.8015 20.9123 23.3956 21.6425 23.3956H24.3475C24.6117 23.3956 24.8266 23.6104 24.8266 23.8746C24.8266 24.1387 24.6117 24.3536 24.3475 24.3536H16.9087C16.6753 24.3536 16.4861 24.5428 16.4861 24.7762C16.4861 25.0097 16.6753 25.1989 16.9087 25.1989H24.3475C25.0778 25.1989 25.6719 24.6048 25.6719 23.8746C25.6719 23.1443 25.0778 22.5502 24.3475 22.5502Z" fill="#564073"/>
<path d="M14.5404 21.3622L21.4956 14.407L20.1431 13.0544C17.7798 15.4177 13.4822 19.7152 12.5121 20.6861L14.5404 21.3622Z" fill="#564073"/>
<path d="M25.1632 14.6249C25.9232 13.7084 25.8744 12.3427 25.016 11.4843C24.1561 10.6244 22.7937 10.5746 21.8754 11.3371L25.1632 14.6249Z" fill="#564073"/>
<path d="M20.7408 12.4567L24.0436 15.7595C24.2166 15.5865 24.3929 15.4102 24.573 15.2301L21.2702 11.9274C21.124 12.0736 20.9456 12.2519 20.7408 12.4567Z" fill="#564073"/>
<path d="M22.0934 15.0046L15.1381 21.9599L15.8137 23.9868C16.3794 23.4303 18.0966 21.7075 23.4459 16.3572L22.0934 15.0046Z" fill="#564073"/>
<path d="M14.3204 22.1799L12.1207 21.4467C12.0117 21.8821 11.7859 22.7862 11.3141 24.6737C11.2473 24.9407 11.4498 25.1988 11.7242 25.1988C11.7967 25.1988 11.5064 25.2666 15.0536 24.3795L14.3204 22.1799Z" fill="#564073"/>
</g>
<defs>
<clipPath id="clip0_1_201">
<rect width="14.4" height="14.4" fill="white" transform="translate(11.3 10.8)"/>
</clipPath>
</defs>
</svg>
