<svg width="80" height="80" viewBox="0 0 80 80" fill="none" xmlns="http://www.w3.org/2000/svg">
<rect width="80" height="80" rx="8" fill="#564073" fill-opacity="0.35"/>
<path d="M50.8889 27.2003H44.3867C44.0681 26.265 43.4749 25.4546 42.689 24.8813C41.9032 24.308 40.9635 24 40 24C39.0365 24 38.0968 24.308 37.311 24.8813C36.5251 25.4546 35.9319 26.265 35.6133 27.2003H29.1111C28.2868 27.2028 27.4969 27.5408 26.9139 28.1403C26.331 28.7399 26.0025 29.5524 26 30.4003V52.8C26.0025 53.6479 26.331 54.4604 26.9139 55.06C27.4969 55.6595 28.2868 55.9975 29.1111 56H50.8889C51.7132 55.9975 52.5031 55.6595 53.0861 55.06C53.669 54.4604 53.9975 53.6479 54 52.8V30.4003C53.9975 29.5524 53.669 28.7399 53.0861 28.1403C52.5031 27.5408 51.7132 27.2028 50.8889 27.2003ZM40 27.2003C40.3077 27.2003 40.6084 27.2941 40.8642 27.4699C41.12 27.6457 41.3194 27.8956 41.4371 28.188C41.5549 28.4803 41.5857 28.8021 41.5257 29.1124C41.4656 29.4228 41.3175 29.7079 41.0999 29.9316C40.8824 30.1554 40.6052 30.3078 40.3035 30.3695C40.0017 30.4313 39.689 30.3996 39.4047 30.2785C39.1205 30.1574 38.8775 29.9523 38.7066 29.6892C38.5357 29.4261 38.4444 29.1167 38.4444 28.8003C38.4457 28.3763 38.61 27.9701 38.9014 27.6703C39.1929 27.3705 39.5878 27.2016 40 27.2003ZM36.8889 35.2002L41.2289 39.6706L45.1489 35.6386L43.1111 33.6002H49.3333V40.0002L47.3484 37.9026L41.232 44.1985L36.8889 39.7282L32.8662 43.8625L30.6667 41.6001L36.8889 35.2002ZM50.8889 51.2H29.1111V48.0001H50.8889V51.2Z" fill="#564073"/>
</svg>
