<svg width="80" height="80" viewBox="0 0 80 80" fill="none" xmlns="http://www.w3.org/2000/svg">
<rect width="80" height="80" rx="8" fill="#564073" fill-opacity="0.35"/>
<g clip-path="url(#clip0_86_5667)">
<path d="M52.9943 50.1117H46.9832C46.3962 50.1117 45.9187 49.6342 45.9187 49.0473C45.9187 48.4603 46.3962 47.9828 46.9832 47.9828H50.9906C52.6134 47.9828 53.9336 46.6626 53.9336 45.0398C53.9336 44.5211 53.513 44.1006 52.9943 44.1006C52.4756 44.1006 52.0551 44.5211 52.0551 45.0398C52.0551 45.6268 51.5776 46.1043 50.9906 46.1043H46.9832C45.3604 46.1043 44.0402 47.4245 44.0402 49.0473C44.0402 50.67 45.3604 51.9902 46.9832 51.9902H52.9943C53.5813 51.9902 54.0588 52.4677 54.0588 53.0547C54.0588 53.6417 53.5813 54.1192 52.9943 54.1192H36.4637C35.9449 54.1192 35.5244 54.5397 35.5244 55.0584C35.5244 55.5771 35.9449 55.9977 36.4637 55.9977H52.9943C54.6171 55.9977 55.9373 54.6775 55.9373 53.0547C55.9373 51.4319 54.6171 50.1117 52.9943 50.1117Z" fill="#564073"/>
<path d="M31.2008 47.4715L46.6568 32.0154L43.6512 29.0098C38.3993 34.2614 28.8492 43.8115 26.6934 45.969L31.2008 47.4715Z" fill="#564073"/>
<path d="M54.8073 32.4997C56.4962 30.463 56.3878 27.4282 54.4802 25.5206C52.5693 23.6096 49.5417 23.4991 47.501 25.1934L54.8073 32.4997Z" fill="#564073"/>
<path d="M44.9795 27.6812L52.319 35.0207C52.7034 34.6363 53.0952 34.2446 53.4954 33.8443L46.1559 26.5049C45.8309 26.8299 45.4346 27.2262 44.9795 27.6812Z" fill="#564073"/>
<path d="M47.9854 33.3438L32.5293 48.7998L34.0306 53.304C35.2877 52.0674 39.1037 48.2391 50.9911 36.3495L47.9854 33.3438Z" fill="#564073"/>
<path d="M30.7121 49.2886L25.8239 47.6592C25.5817 48.6268 25.08 50.636 24.0314 54.8303C23.8831 55.4237 24.3329 55.9973 24.9427 55.9973C25.104 55.9973 24.4587 56.148 32.3415 54.1766L30.7121 49.2886Z" fill="#564073"/>
</g>
<defs>
<clipPath id="clip0_86_5667">
<rect width="32" height="32" fill="white" transform="translate(24 24)"/>
</clipPath>
</defs>
</svg>
