<svg width="100" height="100" viewBox="0 0 100 100" fill="none" xmlns="http://www.w3.org/2000/svg">
<rect width="100" height="100" rx="8" fill="#564073" fill-opacity="0.35"/>
<path d="M35.8758 59.9753L35.8754 59.9749C35.5267 59.6267 35.2501 59.2131 35.0614 58.7579C34.8727 58.3027 34.7756 57.8148 34.7756 57.322C34.7756 56.8292 34.8727 56.3413 35.0614 55.8861C35.1535 55.664 35.2664 55.4519 35.3985 55.2524L40.5962 60.452C40.3968 60.5838 40.1849 60.6966 39.963 60.7885C39.508 60.9771 39.0203 61.0741 38.5277 61.0741C38.0352 61.0741 37.5475 60.9771 37.0924 60.7885C36.6374 60.6 36.224 60.3237 35.8758 59.9753ZM46.8932 33.6079L47.0309 33.4701C47.9859 32.5478 49.1064 31.813 50.3341 31.3047C51.6212 30.7718 53.0009 30.4983 54.3939 30.5L54.395 30.5C56.4787 30.4995 58.5163 31.1135 60.253 32.265L60.8357 32.6513L61.2619 32.0972C61.2774 32.077 61.2935 32.0596 61.3349 32.0147C61.3423 32.0067 61.3504 31.9979 61.3594 31.9881C61.5032 31.8429 61.6747 31.7281 61.8637 31.6506C62.0559 31.5718 62.2622 31.5331 62.4699 31.537C62.6775 31.5409 62.8822 31.5873 63.0713 31.6732C63.2604 31.7592 63.4299 31.8829 63.5694 32.0368C63.7088 32.1907 63.8153 32.3715 63.8823 32.5681C63.9493 32.7647 63.9754 32.973 63.9589 33.18C63.9424 33.3871 63.8837 33.5886 63.7864 33.7721C63.6892 33.9556 63.5554 34.1173 63.3933 34.2471L62.8588 34.6754L63.2368 35.2464C64.5871 37.2863 65.1908 39.7301 64.9458 42.1641C64.7007 44.598 63.6219 46.8725 61.892 48.6022L61.8916 48.6025L60.2605 50.2359C58.4379 52.0609 56.0688 55.3481 54.9211 57.6432C54.9211 57.6433 54.921 57.6434 54.9209 57.6435L51.5238 64.4287L51.5229 64.4307C51.3303 64.8181 51.0802 64.9609 50.8845 64.9922C50.6875 65.0237 50.4003 64.9653 50.0896 64.6565C50.0894 64.6563 50.0891 64.656 50.0889 64.6558L30.8405 45.4074C30.5335 45.1004 30.4758 44.8142 30.5082 44.6151C30.5407 44.4153 30.6865 44.1644 31.0664 43.9739C31.0665 43.9738 31.0667 43.9738 31.0668 43.9737L37.8541 40.5789C37.8541 40.5789 37.8542 40.5789 37.8542 40.5789C40.1674 39.4223 43.4459 37.0552 45.262 35.239L46.8932 33.6079Z" fill="#564073" stroke="#564073" stroke-width="1.5"/>
</svg>
