<svg width="95" height="24" viewBox="0 0 95 24" fill="none" xmlns="http://www.w3.org/2000/svg">
<g clip-path="url(#clip0_105_13375)">
<path d="M17.1993 15.1433V15.6969H9.92422V15.1433H11.5453L9.68699 11.3081H4.15157L2.53048 15.1433H4.70511V15.6969H0V15.1433H1.85832L8.14498 0H8.85667L15.855 15.1433H17.1993ZM4.42834 10.7545H9.48929L6.76112 5.14003L4.42834 10.7545Z" fill="#574275"/>
<path d="M22.5766 15.697V15.1434H23.9605V0.83041H22.5766V0.316406H29.4959C31.7496 0.316406 33.4497 0.672255 34.5173 1.34441C35.5453 1.93749 36.1384 3.04458 36.1384 4.1912C36.1779 5.10059 35.8221 5.9309 35.1894 6.56352C34.5173 7.19614 33.5684 7.55199 32.6194 7.47291V7.63107C33.8056 7.59153 34.9918 7.94738 35.9407 8.69861C36.8501 9.41031 37.3641 10.5569 37.285 11.7036C37.3245 12.8897 36.7315 14.0363 35.7035 14.669C34.6754 15.3411 33.173 15.6574 31.196 15.6574L22.5766 15.697ZM28.0725 7.27522H28.9423C31.1565 7.27522 32.2636 6.20767 32.2636 4.11212C32.2636 1.93749 31.1565 0.83041 28.9423 0.83041H28.0725V7.27522ZM28.0725 15.1434H29.6145C30.5634 15.183 31.5123 14.9062 32.224 14.2736C32.8962 13.641 33.2521 12.7316 33.173 11.7826C33.173 10.2406 32.8171 9.21262 32.0264 8.61954C31.2356 8.02646 30.2471 7.74968 28.9028 7.74968H28.0725V15.1434Z" fill="#574275"/>
<path d="M51.9143 15.697H45.0346V15.1434H46.4185V0.83041H45.0346V0.316406H51.9143V0.869948H50.5305V15.183H51.9143V15.697Z" fill="#574275"/>
<path d="M69.8649 15.697H63.5387V15.1434H64.6063V9.33123L59.6639 0.83041H58.2801V0.316406H65.9901V0.869948H64.6063L68.4811 7.78922L72.0395 0.869948H69.8254V0.316406H74.6491V0.869948H72.7117L68.7578 8.61954V15.183H69.8649V15.697Z" fill="#574275"/>
<path d="M94.0231 15.1433V15.6969H86.7875V15.1433H88.4086L86.5503 11.3081H80.9753L79.3938 15.1433H81.5684V15.6969H76.8633V15.1433H78.7216L85.0083 0H85.6804L92.6788 15.1433H94.0231ZM81.2521 10.7545H86.313L83.5849 5.14003L81.2521 10.7545Z" fill="#574275"/>
<path d="M22.7348 23.96V21.9831C22.7348 21.9435 22.7348 21.7854 22.7348 21.4295C22.6161 21.8249 22.5371 22.1017 22.4975 22.2598L21.944 23.9995H21.4695L20.916 22.2598L20.6787 21.4295C20.6787 21.7854 20.7183 21.9831 20.7183 22.1017V23.96H20.1647V20.876H21.0346L21.5881 22.6157L21.6277 22.7738L21.7463 23.2088L21.9044 22.6948L22.458 20.876H23.3278V23.96H22.7348Z" fill="#574275"/>
<path d="M28.7842 23.96L28.5074 23.1692H27.3212L27.0445 23.96H26.3723L27.4794 20.876H28.2306L29.3377 23.96H28.7842ZM27.9143 21.3504V21.39C27.9143 21.4691 27.8748 21.5086 27.8748 21.5877C27.8748 21.6668 27.7166 22.0226 27.5189 22.6948H28.3888L28.0725 21.7854L27.9934 21.5086L27.9143 21.3504Z" fill="#574275"/>
<path d="M35.0313 23.0509C35.0313 23.3277 34.9127 23.6045 34.6754 23.7626C34.3591 23.9208 34.0428 23.9998 33.687 23.9998C33.3706 23.9998 33.0543 23.9208 32.738 23.8022C32.5008 23.644 32.3426 23.4463 32.3031 23.1695L32.9357 23.0509C32.9753 23.2091 33.0543 23.3277 33.173 23.4068C33.3311 23.4858 33.5288 23.5254 33.687 23.5254C34.1219 23.5254 34.3591 23.3672 34.3591 23.13C34.3591 23.0509 34.3196 22.9718 34.28 22.9323C34.2405 22.8532 34.1614 22.8137 34.0823 22.7741L33.5288 22.616C33.2916 22.5765 33.1334 22.5369 33.0543 22.4974C32.9753 22.4578 32.8962 22.4183 32.8171 22.3788C32.738 22.3392 32.6985 22.2997 32.6194 22.2206C32.5799 22.1415 32.5403 22.0624 32.5008 22.0229C32.4613 21.9438 32.4613 21.8252 32.4613 21.7066C32.4613 21.4694 32.5799 21.2321 32.7776 21.074C33.0543 20.9158 33.3706 20.8367 33.687 20.8763C34.0033 20.8367 34.28 20.9158 34.5568 21.074C34.7545 21.1926 34.8731 21.4298 34.9127 21.6671L34.28 21.7461C34.2405 21.6275 34.201 21.5089 34.0823 21.4298C33.9637 21.3508 33.8056 21.3112 33.6474 21.3508C33.252 21.3508 33.0543 21.4694 33.0543 21.7066C33.0543 21.7857 33.0543 21.8648 33.1334 21.9043C33.173 21.9438 33.252 21.9834 33.3311 22.0229C33.4102 22.0624 33.5683 22.102 33.8451 22.1811C34.0428 22.2206 34.28 22.2997 34.4777 22.3392C34.5963 22.3788 34.715 22.4578 34.794 22.5369C34.8731 22.616 34.9127 22.6951 34.9522 22.7741C35.0313 22.8532 35.0708 22.9718 35.0313 23.0509Z" fill="#574275"/>
<path d="M40.2109 23.96V22.6552H38.8666V23.96H38.2339V20.876H38.8666V22.1017H40.2109V20.876H40.8435V23.96H40.2109Z" fill="#574275"/>
<path d="M46.2603 23.96L45.5486 22.7738H44.7974V23.96H44.1647V20.876H45.7067C46.0231 20.876 46.2998 20.9551 46.5766 21.1132C46.7743 21.2714 46.8929 21.5481 46.8929 21.7854C46.8929 21.9831 46.8534 22.1808 46.7348 22.3389C46.6161 22.4971 46.4184 22.6157 46.2207 22.6552L47.0511 23.96H46.2603ZM46.1812 21.8249C46.1812 21.5481 45.9835 21.39 45.5881 21.39H44.7578V22.2994H45.5881C45.7463 22.2994 45.8649 22.2598 45.9835 22.1808C46.1417 22.1017 46.1812 21.9435 46.1812 21.8249Z" fill="#574275"/>
<path d="M52.2702 23.96L51.9934 23.1692H50.8072L50.5304 23.96H49.8978L51.0049 20.876H51.7561L52.8632 23.96H52.2702ZM51.4003 21.3504V21.39C51.4003 21.4691 51.3608 21.5086 51.3608 21.5877C51.3608 21.6668 51.2026 22.0226 51.0049 22.6948H51.8748L51.5585 21.7854L51.4794 21.5086L51.4003 21.3504Z" fill="#574275"/>
<path d="M58.7545 23.0905C58.7545 23.3277 58.6359 23.6045 58.4382 23.7231C58.201 23.8812 57.8847 23.9603 57.5684 23.9603H56.0264V20.8763H57.4498C57.7661 20.8367 58.0428 20.9158 58.3196 21.074C58.5173 21.1926 58.6359 21.4298 58.6359 21.6671C58.6359 21.8252 58.5964 21.9834 58.4778 22.102C58.3592 22.2206 58.201 22.3392 58.0428 22.3392C58.2405 22.3392 58.4382 22.4578 58.6359 22.5765C58.715 22.7346 58.7545 22.8928 58.7545 23.0905ZM57.9242 21.7461C57.9242 21.6275 57.8847 21.5089 57.7661 21.4298C57.6475 21.3508 57.5288 21.3112 57.3707 21.3508H56.6194V22.102H57.3707C57.4893 22.102 57.6475 22.0624 57.7661 22.0229C57.8847 21.9438 57.9242 21.8648 57.9242 21.7461ZM58.0824 23.0509C58.0824 22.7346 57.8847 22.616 57.4498 22.616H56.6194V23.4858H57.4498C57.6079 23.4858 57.7661 23.4463 57.8847 23.3672C58.0428 23.2881 58.1219 23.1695 58.0824 23.0509Z" fill="#574275"/>
<path d="M61.9572 23.96V20.876H62.6293V23.96H61.9572Z" fill="#574275"/>
<path d="M67.4135 22.6952V23.9209H66.7809V22.6557L65.6738 20.8369H66.346L67.0972 22.1417L67.8484 20.8369H68.5206L67.4135 22.6952Z" fill="#574275"/>
<path d="M73.3443 23.96L73.0675 23.1692H71.8814L71.6046 23.96H70.972L72.0791 20.876H72.8303L73.9374 23.96H73.3443ZM72.4745 21.3504V21.39C72.4745 21.4691 72.4349 21.5086 72.4349 21.5877C72.4349 21.6668 72.2768 22.0226 72.0395 22.6948H72.9489L72.6326 21.7854L72.5535 21.5086L72.4745 21.3504Z" fill="#574275"/>
</g>
<defs>
<clipPath id="clip0_105_13375">
<rect width="94.0231" height="24" fill="white"/>
</clipPath>
</defs>
</svg>
