<svg width="128" height="210" viewBox="0 0 128 210" fill="none" xmlns="http://www.w3.org/2000/svg">
<g clip-path="url(#clip0_4002_10142)">
<path d="M23.4146 198.191V198.929H13.5105V198.191H15.7174L13.1876 193.077H5.65181L3.44491 198.191H6.40538V198.929H0V198.191H2.52986L11.0883 178H12.0572L21.5845 198.191H23.4146ZM6.0286 192.339H12.9184L9.20437 184.853L6.0286 192.339Z" fill="#574275"/>
<path d="M30.7351 198.929V198.191H32.619V179.107H30.7351V178.422H40.1548C43.2229 178.422 45.5375 178.896 46.9908 179.793C48.3903 180.583 49.1977 182.059 49.1977 183.588C49.2515 184.801 48.7671 185.908 47.9058 186.751C46.9908 187.595 45.6989 188.069 44.4071 187.964V188.175C46.0219 188.122 47.6367 188.597 48.9285 189.598C50.1666 190.547 50.8663 192.076 50.7587 193.605C50.8125 195.186 50.0051 196.715 48.6056 197.559C47.2061 198.455 45.1607 198.877 42.4693 198.877L30.7351 198.929ZM38.217 187.7H39.4012C42.4155 187.7 43.9227 186.277 43.9227 183.483C43.9227 180.583 42.4155 179.107 39.4012 179.107H38.217V187.7ZM38.217 198.191H40.3163C41.6081 198.244 42.9 197.875 43.8688 197.031C44.7839 196.188 45.2683 194.975 45.1607 193.71C45.1607 191.654 44.6762 190.283 43.5997 189.493C42.5232 188.702 41.1775 188.333 39.3474 188.333H38.217V198.191Z" fill="#574275"/>
<path d="M70.6744 198.929H61.3086V198.191H63.1925V179.107H61.3086V178.422H70.6744V179.16H68.7905V198.244H70.6744V198.929Z" fill="#574275"/>
<path d="M95.1118 198.929H86.4995V198.191H87.9529V190.442L81.2245 179.107H79.3406V178.422H89.8368V179.16H87.9529L93.2279 188.386L98.0723 179.16H95.058V178.422H101.625V179.16H98.9873L93.6047 189.493V198.244H95.1118V198.929Z" fill="#574275"/>
<path d="M128 198.191V198.929H118.15V198.191H120.357L117.827 193.077H110.237L108.084 198.191H111.045V198.929H104.639V198.191H107.169L115.727 178H116.643L126.17 198.191H128ZM110.614 192.339H117.504L113.79 184.853L110.614 192.339Z" fill="#574275"/>
<path d="M30.9504 209.947V207.312C30.9504 207.259 30.9504 207.048 30.9504 206.574C30.7889 207.101 30.6813 207.47 30.6274 207.681L29.8739 210H29.2279L28.4744 207.681L28.1514 206.574C28.1514 207.048 28.2052 207.312 28.2052 207.47V209.947H27.4517V205.835H28.6358L29.3894 208.155L29.4433 208.366L29.6047 208.946L29.82 208.26L30.5736 205.835H31.7578V209.947H30.9504Z" fill="#574275"/>
<path d="M39.1858 209.947L38.809 208.893H37.1942L36.8174 209.947H35.9023L37.4095 205.835H38.4322L39.9393 209.947H39.1858ZM38.0016 206.468V206.521C38.0016 206.626 37.9478 206.679 37.9478 206.784C37.9478 206.89 37.7325 207.364 37.4633 208.26H38.6475L38.2169 207.048L38.1092 206.679L38.0016 206.468Z" fill="#574275"/>
<path d="M47.6906 208.735C47.6906 209.104 47.5291 209.473 47.2062 209.684C46.7756 209.895 46.3449 210 45.8605 210C45.4299 210 44.9993 209.895 44.5687 209.736C44.2457 209.525 44.0304 209.262 43.9766 208.893L44.8378 208.735C44.8916 208.946 44.9993 209.104 45.1608 209.209C45.3761 209.315 45.6452 209.367 45.8605 209.367C46.4526 209.367 46.7756 209.156 46.7756 208.84C46.7756 208.735 46.7217 208.629 46.6679 208.577C46.6141 208.471 46.5064 208.418 46.3988 208.366L45.6452 208.155C45.3222 208.102 45.1069 208.049 44.9993 207.997C44.8916 207.944 44.784 207.891 44.6763 207.839C44.5687 207.786 44.5148 207.733 44.4072 207.628C44.3534 207.522 44.2995 207.417 44.2457 207.364C44.1919 207.259 44.1919 207.1 44.1919 206.942C44.1919 206.626 44.3534 206.31 44.6225 206.099C44.9993 205.888 45.4299 205.782 45.8605 205.835C46.2911 205.782 46.6679 205.888 47.0447 206.099C47.3138 206.257 47.4753 206.573 47.5291 206.89L46.6679 206.995C46.6141 206.837 46.5602 206.679 46.3988 206.573C46.2373 206.468 46.022 206.415 45.8067 206.468C45.2684 206.468 44.9993 206.626 44.9993 206.942C44.9993 207.048 44.9993 207.153 45.1069 207.206C45.1608 207.259 45.2684 207.311 45.3761 207.364C45.4837 207.417 45.699 207.469 46.0758 207.575C46.3449 207.628 46.6679 207.733 46.937 207.786C47.0985 207.839 47.26 207.944 47.3676 208.049C47.4753 208.155 47.5291 208.26 47.583 208.366C47.6906 208.471 47.7444 208.629 47.6906 208.735Z" fill="#574275"/>
<path d="M54.7419 209.947V208.208H52.9118V209.947H52.0505V205.835H52.9118V207.47H54.7419V205.835H55.6031V209.947H54.7419Z" fill="#574275"/>
<path d="M62.9773 209.947L62.0084 208.366H60.9857V209.947H60.1245V205.835H62.2238C62.6544 205.835 63.0312 205.941 63.4079 206.152C63.6771 206.363 63.8386 206.732 63.8386 207.048C63.8386 207.312 63.7847 207.575 63.6232 207.786C63.4618 207.997 63.1926 208.155 62.9235 208.208L64.0539 209.947H62.9773ZM62.8697 207.101C62.8697 206.732 62.6005 206.521 62.0623 206.521H60.9319V207.733H62.0623C62.2776 207.733 62.4391 207.681 62.6005 207.575C62.8159 207.47 62.8697 207.259 62.8697 207.101Z" fill="#574275"/>
<path d="M71.159 209.947L70.7823 208.893H69.1675L68.7907 209.947H67.9294L69.4366 205.835H70.4593L71.9664 209.947H71.159ZM69.9749 206.468V206.521C69.9749 206.626 69.921 206.679 69.921 206.784C69.921 206.89 69.7057 207.364 69.4366 208.26H70.6208L70.1902 207.048L70.0825 206.679L69.9749 206.468Z" fill="#574275"/>
<path d="M79.9865 208.787C79.9865 209.104 79.825 209.473 79.5559 209.631C79.2329 209.842 78.8023 209.947 78.3717 209.947H76.2725V205.835H78.2102C78.6408 205.782 79.0176 205.888 79.3944 206.099C79.6635 206.257 79.825 206.573 79.825 206.89C79.825 207.1 79.7712 207.311 79.6097 207.469C79.4482 207.628 79.2329 207.786 79.0176 207.786C79.2868 207.786 79.5559 207.944 79.825 208.102C79.9327 208.313 79.9865 208.524 79.9865 208.787ZM78.8561 206.995C78.8561 206.837 78.8023 206.679 78.6408 206.573C78.4794 206.468 78.3179 206.415 78.1026 206.468H77.0799V207.469H78.1026C78.2641 207.469 78.4794 207.417 78.6408 207.364C78.8023 207.259 78.8561 207.153 78.8561 206.995ZM79.0715 208.735C79.0715 208.313 78.8023 208.155 78.2102 208.155H77.0799V209.315H78.2102C78.4255 209.315 78.6408 209.262 78.8023 209.156C79.0176 209.051 79.1253 208.893 79.0715 208.735Z" fill="#574275"/>
<path d="M84.3464 209.947V205.835H85.2615V209.947H84.3464Z" fill="#574275"/>
<path d="M91.7746 208.26V209.895H90.9134V208.208L89.4062 205.783H90.3213L91.344 207.522L92.3667 205.783H93.2818L91.7746 208.26Z" fill="#574275"/>
<path d="M99.8487 209.947L99.472 208.893H97.8572L97.4804 209.947H96.6191L98.1263 205.835H99.149L100.656 209.947H99.8487ZM98.6646 206.468V206.521C98.6646 206.626 98.6107 206.679 98.6107 206.784C98.6107 206.89 98.3954 207.364 98.0725 208.26H99.3105L98.8799 207.048L98.7722 206.679L98.6646 206.468Z" fill="#574275"/>
</g>
<g clip-path="url(#clip1_4002_10142)">
<path d="M106 42.9667L63.0181 0L20 42.9667V139.75H31.4787V154H94.5575V139.75H106.036V42.9667H106ZM65.8787 91.0691H60.1575V59.5674L63.0181 56.7102L65.8787 59.5674V91.0691ZM60.1575 96.7835H65.8787V119.713H60.1575V96.7835ZM63.0181 48.6087L54.4 57.1804V76.7107H48.6787V54.7933L63.0181 40.4711L77.3575 54.7933V76.7107H71.6362V57.1804L63.0181 48.6087ZM48.6787 111.106H54.4V134H48.6787V111.106ZM54.4 105.391H48.6787V82.4613H54.4V105.391ZM77.3575 82.4613V105.391H71.6362V82.4613H77.3575ZM71.6 111.106H77.3213V134H71.6V111.106ZM63.0181 32.4058L42.9213 52.4425V91.0691H37.2V50.0554L63.0181 24.2682L88.8362 50.0554V91.0329H83.1149V52.4063L63.0181 32.4058ZM31.4787 105.391H25.7213V82.4613H31.4425V105.391H31.4787ZM37.2 96.7835H42.9213V119.713H37.2V96.7835ZM83.0787 96.7835H88.8V119.713H83.0787V96.7835ZM94.5575 82.4613H100.279V105.391H94.5575V82.4613ZM63.0181 8.10146L100.279 45.3175V76.7107H94.5575V47.6684L63.0181 16.1667L31.4787 47.6684V76.7107H25.7213V45.3175L63.0181 8.10146ZM25.7213 134.036V111.142H31.4425V134.036H25.7213ZM37.2 148.286V125.428H42.9213V139.75H60.1213V125.428H65.8425V139.75H83.0425V125.428H88.8V148.286H37.2ZM94.5575 134.036V111.142H100.279V134.036H94.5575Z" fill="url(#paint0_linear_4002_10142)"/>
</g>
<defs>
<linearGradient id="paint0_linear_4002_10142" x1="94.8817" y1="153.834" x2="26.1412" y2="18.7618" gradientUnits="userSpaceOnUse">
<stop stop-color="#AC9B79"/>
<stop offset="1" stop-color="#CBBEA8"/>
</linearGradient>
<clipPath id="clip0_4002_10142">
<rect width="128" height="32" fill="white" transform="translate(0 178)"/>
</clipPath>
<clipPath id="clip1_4002_10142">
<rect width="86" height="154" fill="white" transform="translate(20)"/>
</clipPath>
</defs>
</svg>
