<svg width="24" height="24" viewBox="0 0 24 24" fill="none" xmlns="http://www.w3.org/2000/svg">
<path d="M6.3281 17.8475L6.3277 17.8471C6.18824 17.7078 6.07762 17.5424 6.00214 17.3603C5.92666 17.1783 5.88781 16.9831 5.88781 16.786C5.88781 16.6542 5.90517 16.5234 5.93922 16.3967L7.77768 18.2358C7.65115 18.2697 7.52044 18.2871 7.38887 18.2871C7.19186 18.2871 6.99677 18.2482 6.81476 18.1728L6.54839 18.8157L6.81476 18.1728C6.63275 18.0974 6.46738 17.9869 6.3281 17.8475ZM11.8368 5.1941L11.9033 5.12758C12.3464 4.70013 12.8661 4.35954 13.4355 4.12381C14.0334 3.87626 14.6744 3.74923 15.3215 3.75L15.3226 3.75C16.2907 3.74979 17.2374 4.03502 18.0443 4.57002L18.6269 4.95637L19.0501 4.40628C19.0506 4.40564 19.0514 4.4048 19.0523 4.40374L19.0645 4.3905L19.0748 4.37931C19.1105 4.34417 19.1527 4.31629 19.1991 4.29726C19.2479 4.27727 19.3002 4.26746 19.3529 4.26845C19.4056 4.26944 19.4575 4.28119 19.5055 4.303C19.5534 4.3248 19.5964 4.35619 19.6318 4.39523C19.6672 4.43427 19.6942 4.48014 19.7112 4.53001C19.7282 4.57988 19.7348 4.63271 19.7306 4.68522C19.7264 4.73776 19.7116 4.78887 19.6869 4.83542C19.6622 4.88196 19.6283 4.92298 19.5871 4.95593L19.0527 5.38415L19.4307 5.9552C20.0581 6.903 20.3386 8.03853 20.2248 9.16947C20.1109 10.3004 19.6096 11.3572 18.8059 12.1609L18.8055 12.1613L17.9899 12.978C17.9899 12.978 17.9899 12.978 17.9899 12.978C17.0503 13.9188 15.8421 15.595 15.2502 16.7787C15.2502 16.7788 15.2501 16.7789 15.2501 16.7791L13.5516 20.1715L13.5506 20.1735C13.5328 20.2094 13.5165 20.2309 13.5056 20.2428C13.4905 20.2348 13.466 20.2188 13.4346 20.1878C13.4344 20.1875 13.4342 20.1873 13.4339 20.1871L3.8104 10.5635C3.77921 10.5323 3.76367 10.5082 3.75624 10.4939C3.7675 10.483 3.78898 10.4659 3.82639 10.4471L7.21975 8.74987C7.21978 8.74986 7.21981 8.74984 7.21984 8.74983C8.41262 8.15342 10.0847 6.94614 11.0212 6.00968L11.8368 5.1941Z" stroke="#4B4B4B" stroke-width="1.5"/>
</svg>
