<svg width="24" height="24" viewBox="0 0 24 24" fill="none" xmlns="http://www.w3.org/2000/svg">
<path d="M20.1212 19.1396L15.977 14.9954C17.1063 13.6142 17.6616 11.8517 17.5279 10.0726C17.3943 8.29348 16.5819 6.63379 15.2588 5.43683C13.9358 4.23987 12.2033 3.59723 10.4197 3.64182C8.6361 3.68642 6.93788 4.41484 5.6763 5.67642C4.41472 6.938 3.6863 8.63622 3.6417 10.4198C3.59711 12.2034 4.23975 13.9359 5.43671 15.2589C6.63366 16.582 8.29336 17.3944 10.0725 17.5281C11.8516 17.6617 13.6141 17.1065 14.9953 15.9771L19.1395 20.1213C19.2704 20.2478 19.4458 20.3178 19.6278 20.3162C19.8099 20.3146 19.984 20.2416 20.1127 20.1129C20.2415 19.9841 20.3145 19.81 20.3161 19.628C20.3177 19.4459 20.2477 19.2705 20.1212 19.1396ZM10.6046 16.159C9.50608 16.159 8.43221 15.8333 7.51882 15.223C6.60542 14.6126 5.89351 13.7452 5.47312 12.7303C5.05273 11.7154 4.94273 10.5986 5.15705 9.52115C5.37136 8.44372 5.90036 7.45404 6.67714 6.67726C7.45392 5.90048 8.4436 5.37148 9.52103 5.15717C10.5985 4.94286 11.7152 5.05285 12.7302 5.47324C13.7451 5.89363 14.6125 6.60554 15.2228 7.51894C15.8332 8.43234 16.1589 9.5062 16.1589 10.6047C16.1573 12.0773 15.5715 13.4891 14.5303 14.5304C13.489 15.5717 12.0772 16.1574 10.6046 16.159Z" fill="#4B4B4B"/>
</svg>
