<svg width="25" height="24" viewBox="0 0 25 24" fill="none" xmlns="http://www.w3.org/2000/svg">
<path d="M18.9335 6.30225C19.175 6.30225 19.4127 6.32475 19.6475 6.3585V3.65625C19.6475 2.8275 18.9762 2.15625 18.1475 2.15625H6.61249C5.78374 2.15625 5.11249 2.8275 5.11249 3.65625V17.2313C5.11249 18.06 5.78374 18.7313 6.61249 18.7313H18.1475C18.9762 18.7313 19.6475 18.06 19.6475 17.2313V16.2218C19.412 16.2562 19.1742 16.278 18.9335 16.278C17.5992 16.278 16.346 15.7598 15.4047 14.8177C13.4592 12.873 13.4592 9.70725 15.4047 7.76175C16.3467 6.8205 17.6 6.30225 18.9335 6.30225ZM13.73 9.08625C13.73 9.459 13.4277 9.76125 13.055 9.76125H8.86999C8.49724 9.76125 8.19499 9.459 8.19499 9.08625C8.19499 8.7135 8.49724 8.41125 8.86999 8.41125H13.055C13.4277 8.41125 13.73 8.7135 13.73 9.08625ZM13.295 11.8088C13.295 12.1815 12.9927 12.4838 12.62 12.4838H8.86999C8.49724 12.4838 8.19499 12.1815 8.19499 11.8088C8.19499 11.436 8.49724 11.1337 8.86999 11.1337H12.62C12.9927 11.1337 13.295 11.436 13.295 11.8088ZM8.86774 5.68575H10.625C10.9977 5.68575 11.3 5.988 11.3 6.36075C11.3 6.7335 10.9977 7.03575 10.625 7.03575H8.86774C8.49499 7.03575 8.19274 6.7335 8.19274 6.36075C8.19274 5.988 8.49499 5.68575 8.86774 5.68575ZM14.315 14.5312C14.315 14.904 14.0127 15.2062 13.64 15.2062H8.86999C8.49724 15.2062 8.19499 14.904 8.19499 14.5312C8.19499 14.1585 8.49724 13.8563 8.86999 13.8563H13.64C14.0127 13.8563 14.315 14.1585 14.315 14.5312Z" fill="#393A40"/>
<path d="M23.477 14.8793L21.9357 13.3381C22.9025 11.9221 22.763 9.97132 21.5067 8.71582C20.087 7.29682 17.7785 7.29757 16.3587 8.71582C14.9397 10.1348 14.9397 12.4441 16.3587 13.8631C17.0682 14.5726 18.0005 14.9273 18.9327 14.9273C19.6497 14.9273 20.3652 14.7121 20.981 14.2921L22.5215 15.8326C22.6535 15.9646 22.826 16.0306 22.9985 16.0306C23.171 16.0306 23.3435 15.9646 23.4755 15.8326C23.741 15.5701 23.741 15.1426 23.477 14.8793ZM17.3142 12.9091C16.4217 12.0166 16.4217 10.5631 17.3142 9.67057C17.7605 9.22432 18.347 9.00082 18.9335 9.00082C19.52 9.00082 20.1065 9.22432 20.5527 9.67057C21.4452 10.5631 21.4452 12.0166 20.5527 12.9091C19.688 13.7746 18.179 13.7746 17.3142 12.9091Z" fill="#393A40"/>
<path d="M6.6125 20.0814C5.04125 20.0814 3.7625 18.8026 3.7625 17.2314V5.26514H3.5C2.675 5.26514 2 5.93264 2 6.76514V20.3401C2 21.1726 2.675 21.8401 3.5 21.8401H15.035C15.86 21.8401 16.535 21.1726 16.535 20.3401V20.0814H6.6125Z" fill="#393A40"/>
</svg>
