<svg width="24" height="24" viewBox="0 0 24 24" fill="none" xmlns="http://www.w3.org/2000/svg">
<path d="M21.5303 4.71973L20.0303 3.21973C19.7373 2.92676 19.2627 2.92676 18.9697 3.21973L17.4697 4.71973C17.1768 5.0127 17.1768 5.4873 17.4697 5.78027C17.7627 6.07324 18.2373 6.07324 18.5303 5.78027L18.7003 5.61021C18.1958 13.1729 12.59 18.75 5.25 18.75C4.83582 18.75 4.5 19.0858 4.5 19.5C4.5 19.9142 4.83582 20.25 5.25 20.25C13.4743 20.25 19.7356 13.9811 20.2044 5.51491L20.4697 5.78027C20.6162 5.92676 20.8081 6 21 6C21.1919 6 21.3838 5.92676 21.5303 5.78027C21.8232 5.4873 21.8232 5.0127 21.5303 4.71973Z" fill="#393A40"/>
<path d="M21.75 22.5H13.5C13.0854 22.5 12.75 22.1642 12.75 21.75C12.75 21.3358 13.0854 21 13.5 21H21.75C22.1646 21 22.5 21.3358 22.5 21.75C22.5 22.1642 22.1646 22.5 21.75 22.5Z" fill="#393A40"/>
<path d="M16.216 8.179L14.0661 7.64154C13.9462 7.19362 13.7703 6.76964 13.5434 6.37743L14.683 4.47807C14.7715 4.33054 14.7483 4.14166 14.6266 4.01999L13.98 3.3734C13.8583 3.25172 13.6695 3.22847 13.5219 3.317L11.6226 4.4566C11.2304 4.22969 10.8064 4.05377 10.3585 3.93388L9.821 1.78404C9.7793 1.6171 9.62929 1.5 9.45721 1.5H8.54279C8.37071 1.5 8.2207 1.6171 8.179 1.78404L7.64154 3.93388C7.19362 4.05377 6.76964 4.22969 6.37743 4.4566L4.47807 3.317C4.33054 3.22847 4.14166 3.25172 4.01999 3.3734L3.3734 4.01999C3.25172 4.14166 3.22847 4.33054 3.317 4.47807L4.4566 6.37743C4.22969 6.76964 4.05377 7.19362 3.93388 7.64154L1.78404 8.179C1.6171 8.2207 1.5 8.37071 1.5 8.54279V9.45721C1.5 9.62929 1.6171 9.7793 1.78404 9.821L3.93388 10.3585C4.05377 10.8064 4.22969 11.2304 4.4566 11.6226L3.317 13.5219C3.22847 13.6695 3.25172 13.8583 3.3734 13.98L4.01999 14.6266C4.14166 14.7483 4.33054 14.7715 4.47807 14.683L6.37743 13.5434C6.76964 13.7703 7.19362 13.9462 7.64154 14.0661L8.179 16.216C8.2207 16.3829 8.37071 16.5 8.54279 16.5H9.45721C9.62929 16.5 9.7793 16.3829 9.821 16.216L10.3585 14.0661C10.8064 13.9462 11.2304 13.7703 11.6226 13.5434L13.5219 14.683C13.6695 14.7715 13.8583 14.7483 13.98 14.6266L14.6266 13.98C14.7483 13.8583 14.7715 13.6695 14.683 13.5219L13.5434 11.6226C13.7703 11.2304 13.9462 10.8064 14.0661 10.3585L16.216 9.821C16.3829 9.7793 16.5 9.62929 16.5 9.45721V8.54279C16.5 8.37071 16.3829 8.2207 16.216 8.179ZM9 12C7.34312 12 6 10.6569 6 9C6 7.34312 7.34312 6 9 6C10.6569 6 12 7.34312 12 9C12 10.6569 10.6569 12 9 12Z" fill="#393A40"/>
<path d="M9 11.25C10.2426 11.25 11.25 10.2426 11.25 9C11.25 7.75736 10.2426 6.75 9 6.75C7.75736 6.75 6.75 7.75736 6.75 9C6.75 10.2426 7.75736 11.25 9 11.25Z" fill="#393A40"/>
<path d="M15.75 20.25H13.5V18.75C13.5 18.3358 13.8358 18 14.25 18H15C15.4142 18 15.75 18.3358 15.75 18.75V20.25Z" fill="#393A40"/>
<path d="M18.75 20.25H16.5V16.5C16.5 16.0858 16.8358 15.75 17.25 15.75H18C18.4142 15.75 18.75 16.0858 18.75 16.5V20.25Z" fill="#393A40"/>
<path d="M21.75 20.25H19.5V12.75C19.5 12.3358 19.8358 12 20.25 12H21C21.4142 12 21.75 12.3358 21.75 12.75V20.25Z" fill="#393A40"/>
</svg>
