<svg width="25" height="24" viewBox="0 0 25 24" fill="none" xmlns="http://www.w3.org/2000/svg">
<path d="M12.5 12.7031C12.8883 12.7031 13.2031 12.3883 13.2031 12C13.2031 11.6117 12.8883 11.2969 12.5 11.2969C12.1117 11.2969 11.7969 11.6117 11.7969 12C11.7969 12.3883 12.1117 12.7031 12.5 12.7031Z" fill="#393A40"/>
<path d="M11.4966 20.7485L15.7822 13.1783C16.3433 12.187 17.3585 11.5952 18.4977 11.5952C19.6369 11.5952 20.652 12.187 21.2133 13.1783L21.5254 13.7296C21.6322 13.1653 21.6875 12.5869 21.6875 12C21.6875 9.54591 20.7318 7.23877 18.9966 5.50345C17.2612 3.76819 14.954 2.8125 12.5 2.8125C10.046 2.8125 7.73877 3.76819 6.00345 5.50341C4.26819 7.23877 3.3125 9.54591 3.3125 12C3.3125 14.4541 4.26819 16.7612 6.00341 18.4965C7.45738 19.9505 9.31292 20.8567 11.3198 21.1125C11.3705 20.9888 11.4293 20.8673 11.4966 20.7485ZM8.25781 12.6797C7.8695 12.6797 7.55469 12.3649 7.55469 11.9766C7.55469 11.5883 7.8695 11.2734 8.25781 11.2734H10.5196C10.7358 10.6861 11.2063 10.221 11.7969 10.0116V7.73438C11.7969 7.34606 12.1117 7.03125 12.5 7.03125C12.8883 7.03125 13.2031 7.34606 13.2031 7.73438V10.0116C14.0215 10.3018 14.6094 11.0834 14.6094 12C14.6094 13.1631 13.6632 14.1094 12.5 14.1094C11.5747 14.1094 10.7872 13.5102 10.5036 12.6797H8.25781Z" fill="#393A40"/>
<path d="M11.5164 23.8574C11.2682 23.4318 11.1276 22.9691 11.0946 22.5012C8.79767 22.1986 6.6748 21.1566 5.00909 19.4909C3.00819 17.49 1.90625 14.8297 1.90625 12C1.90625 9.1703 3.00819 6.51 5.00905 4.50905C7.01 2.50819 9.67034 1.40625 12.5 1.40625C15.3297 1.40625 17.99 2.50819 19.991 4.50909C21.9918 6.51 23.0938 9.1703 23.0938 12C23.0938 13.2012 22.8945 14.3715 22.5129 15.4741L23.3977 17.0372C24.1192 15.4786 24.5 13.7687 24.5 12C24.5 8.79469 23.2518 5.78119 20.9853 3.51469C18.7188 1.24823 15.7053 0 12.5 0C9.29469 0 6.28123 1.24823 4.01469 3.51469C1.74823 5.78119 0.5 8.79469 0.5 12C0.5 15.2053 1.74823 18.2188 4.01469 20.4853C6.06359 22.5342 8.72291 23.7507 11.5825 23.9655C11.5599 23.9299 11.5377 23.8941 11.5164 23.8574Z" fill="#393A40"/>
<path d="M24.275 21.4413L19.9895 13.8712C19.6812 13.3266 19.1235 13.0015 18.4977 13.0015C17.8719 13.0015 17.3142 13.3266 17.0059 13.8712L12.7203 21.4413C12.4165 21.9779 12.4205 22.6164 12.7312 23.1492C13.0418 23.6819 13.5955 24 14.2122 24H22.7832C23.3999 24 23.9535 23.6819 24.2642 23.1492C24.5748 22.6164 24.5788 21.9779 24.275 21.4413ZM19.1864 21.7185C19.1201 22.0431 18.829 22.2838 18.4969 22.2838C18.2037 22.2838 17.9336 22.0942 17.8355 21.8177C17.7373 21.5413 17.8232 21.2237 18.0511 21.0374C18.2789 20.8512 18.6055 20.8275 18.8582 20.9779C19.1097 21.1275 19.245 21.4315 19.1864 21.7185ZM19.2008 18.848C19.2008 19.2363 18.886 19.5511 18.4977 19.5511C18.1093 19.5511 17.7945 19.2363 17.7945 18.848V16.5909C17.7945 16.2026 18.1093 15.8878 18.4977 15.8878C18.886 15.8878 19.2008 16.2026 19.2008 16.5909V18.848Z" fill="#393A40"/>
</svg>
