<svg width="25" height="24" viewBox="0 0 25 24" fill="none" xmlns="http://www.w3.org/2000/svg">
<g clip-path="url(#clip0_2086_142744)">
<path d="M6.74953 18.5313C5.1486 18.5313 3.72456 17.5062 3.20746 15.9802L3.17248 15.8652C3.05053 15.4611 2.99944 15.1212 2.99944 14.7812V7.96289L0.573418 16.0611C0.261399 17.2522 0.972415 18.4871 2.16538 18.8162L17.6288 22.9574C17.8218 23.0074 18.0148 23.0314 18.2049 23.0314C19.2008 23.0314 20.1109 22.3703 20.366 21.3962L21.2669 18.5313H6.74953Z" fill="#393A40"/>
<path d="M9.49968 8.03098C10.6027 8.03098 11.4996 7.13393 11.4996 6.03087C11.4996 4.92782 10.6027 4.03076 9.49968 4.03076C8.39663 4.03076 7.49957 4.92782 7.49957 6.03087C7.49957 7.13393 8.39663 8.03098 9.49968 8.03098Z" fill="#393A40"/>
<path d="M21.9999 1.03076H6.99948C5.62158 1.03076 4.49948 2.15286 4.49948 3.53095V14.5311C4.49948 15.9092 5.62158 17.0313 6.99948 17.0313H21.9999C23.3779 17.0313 24.5 15.9092 24.5 14.5311V3.53095C24.5 2.15286 23.3779 1.03076 21.9999 1.03076ZM6.99948 3.03087H21.9999C22.276 3.03087 22.4999 3.25482 22.4999 3.53095V10.6301L19.3409 6.94393C19.0058 6.55098 18.5208 6.34095 17.9998 6.32905C17.4818 6.33198 16.9958 6.56196 16.6638 6.96005L12.9496 11.418L11.7396 10.211C11.0557 9.52706 9.94261 9.52706 9.25961 10.211L6.49959 12.9701V3.53095C6.49959 3.25482 6.72354 3.03087 6.99948 3.03087Z" fill="#393A40"/>
</g>
<defs>
<clipPath id="clip0_2086_142744">
<rect width="24" height="24" fill="white" transform="translate(0.5)"/>
</clipPath>
</defs>
</svg>
