<svg width="24" height="24" viewBox="0 0 24 24" fill="none" xmlns="http://www.w3.org/2000/svg">
<path d="M15.1725 5.62641L11.86 0.00390625C9.85285 0.0282559 7.88388 0.555713 6.13334 1.53799C4.38281 2.52026 2.90664 3.92597 1.84 5.62641H15.1725Z" fill="#393A40"/>
<path d="M7.7675 6.12646H1.5425C0.563198 7.86277 0.0335244 9.81636 0.00165096 11.8095C-0.0302224 13.8027 0.436716 15.7722 1.36 17.539L7.7675 6.12646Z" fill="#393A40"/>
<path d="M19.15 11.3914L22.3175 5.89141C21.2951 4.1631 19.8558 2.71866 18.1312 1.69015C16.4065 0.661643 14.4515 0.0818924 12.445 0.00390625L19.15 11.3914Z" fill="#393A40"/>
<path d="M16.0425 17.8087H22.5C23.4686 16.0646 23.9858 14.1061 24.0045 12.1111C24.0233 10.1162 23.5431 8.14826 22.6075 6.38623L16.0425 17.8087Z" fill="#393A40"/>
<path d="M4.77749 12.4688L1.64499 18.0513C2.6638 19.7948 4.10615 21.2531 5.83846 22.291C7.57076 23.3289 9.53698 23.9129 11.555 23.9888L4.77749 12.4688Z" fill="#393A40"/>
<path d="M8.795 18.3091L12.14 24.0041C14.1612 23.9791 16.1433 23.444 17.9024 22.4484C19.6615 21.4528 21.1406 20.029 22.2025 18.3091H8.795Z" fill="#393A40"/>
</svg>
