<svg width="25" height="24" viewBox="0 0 25 24" fill="none" xmlns="http://www.w3.org/2000/svg">
<path d="M22.25 11V17C22.3087 17.5067 22.2521 18.02 22.0844 18.5017C21.9167 18.9834 21.6423 19.421 21.2816 19.7816C20.921 20.1423 20.4834 20.4167 20.0017 20.5844C19.52 20.7521 19.0067 20.8087 18.5 20.75H6.50001C5.99335 20.8087 5.47997 20.7521 4.99827 20.5844C4.51657 20.4167 4.07903 20.1423 3.71837 19.7816C3.35771 19.421 3.08327 18.9834 2.91557 18.5017C2.74788 18.02 2.69128 17.5067 2.75001 17V7C2.69128 6.49334 2.74788 5.97996 2.91557 5.49826C3.08327 5.01657 3.35771 4.57902 3.71837 4.21836C4.07903 3.8577 4.51657 3.58326 4.99827 3.41557C5.47997 3.24788 5.99335 3.19128 6.50001 3.25H13.5C13.6989 3.25 13.8897 3.32902 14.0303 3.46967C14.171 3.61032 14.25 3.80109 14.25 4C14.25 4.19891 14.171 4.38968 14.0303 4.53033C13.8897 4.67098 13.6989 4.75 13.5 4.75H6.50001C4.92301 4.75 4.25001 5.423 4.25001 7V16.25L6.79001 13.71C6.97881 13.5226 7.23402 13.4175 7.50001 13.4175C7.76599 13.4175 8.0212 13.5226 8.21001 13.71L9.15001 14.65C9.24347 14.7416 9.36913 14.7929 9.50001 14.7929C9.63088 14.7929 9.75654 14.7416 9.85001 14.65L14.79 9.71C14.9788 9.52265 15.234 9.41752 15.5 9.41752C15.766 9.41752 16.0212 9.52265 16.21 9.71L20.75 14.25V11C20.75 10.8011 20.829 10.6103 20.9697 10.4697C21.1103 10.329 21.3011 10.25 21.5 10.25C21.6989 10.25 21.8897 10.329 22.0303 10.4697C22.171 10.6103 22.25 10.8011 22.25 11ZM8.49301 7.75C8.16099 7.75093 7.84292 7.88359 7.60865 8.11885C7.37437 8.35411 7.24304 8.67273 7.24351 9.00475C7.24397 9.33676 7.37619 9.65501 7.61112 9.88962C7.84605 10.1242 8.16449 10.256 8.49651 10.256C8.82852 10.256 9.14696 10.1242 9.38189 9.88962C9.61682 9.65501 9.74904 9.33676 9.7495 9.00475C9.74997 8.67273 9.61864 8.35411 9.38437 8.11885C9.15009 7.88359 8.83202 7.75093 8.50001 7.75H8.49301ZM17.5 5.75H18.75V7C18.75 7.19891 18.829 7.38968 18.9697 7.53033C19.1103 7.67098 19.3011 7.75 19.5 7.75C19.6989 7.75 19.8897 7.67098 20.0303 7.53033C20.171 7.38968 20.25 7.19891 20.25 7V5.75H21.5C21.6989 5.75 21.8897 5.67098 22.0303 5.53033C22.171 5.38968 22.25 5.19891 22.25 5C22.25 4.80109 22.171 4.61032 22.0303 4.46967C21.8897 4.32902 21.6989 4.25 21.5 4.25H20.25V3C20.25 2.80109 20.171 2.61032 20.0303 2.46967C19.8897 2.32902 19.6989 2.25 19.5 2.25C19.3011 2.25 19.1103 2.32902 18.9697 2.46967C18.829 2.61032 18.75 2.80109 18.75 3V4.25H17.5C17.3011 4.25 17.1103 4.32902 16.9697 4.46967C16.829 4.61032 16.75 4.80109 16.75 5C16.75 5.19891 16.829 5.38968 16.9697 5.53033C17.1103 5.67098 17.3011 5.75 17.5 5.75Z" fill="#393A40"/>
</svg>
