<svg width="24" height="24" viewBox="0 0 24 24" fill="none" xmlns="http://www.w3.org/2000/svg">
<path d="M11.9859 19.73H24V4.26123H16.4016L11.9859 19.73ZM17.9746 12.054C18.1698 12.2493 18.4864 12.2493 18.6817 12.054L20.7871 9.94864C20.9823 9.75338 21.2989 9.75338 21.4942 9.94864L21.7813 10.2358C21.9766 10.4311 21.9766 10.7476 21.7813 10.9429L18.6817 14.0426C18.4864 14.2378 18.1698 14.2378 17.9746 14.0426L16.2812 12.3492C16.0859 12.1539 16.0859 11.8373 16.2812 11.6421L16.5683 11.3549C16.7636 11.1596 17.0802 11.1596 17.2754 11.3549L17.9746 12.054Z" fill="#393A40"/>
<path d="M8.45355 21.8385C8.3773 22.1032 8.52956 22.3797 8.79404 22.4568L9.18883 22.572C9.45269 22.6489 9.72092 22.5197 9.79675 22.2555C10.1787 20.9246 11.5204 16.2418 15.545 2.16118C15.6206 1.89667 15.471 1.61127 15.2069 1.53426L14.8161 1.42027C14.5503 1.34276 14.2721 1.49597 14.1956 1.76202L13.4765 4.26103H0V19.7298H9.06089L8.45355 21.8385ZM7.07812 7.57354C7.07812 7.29739 7.30198 7.07354 7.57812 7.07354H9.39062C9.66677 7.07354 9.89062 7.29739 9.89062 7.57354V7.97979C9.89062 8.25593 9.66677 8.47979 9.39062 8.47979H7.57812C7.30198 8.47979 7.07812 8.25593 7.07812 7.97979V7.57354ZM2.85938 8.97979C2.85938 8.70364 3.08323 8.47979 3.35938 8.47979H5.17188C5.44802 8.47979 5.67188 8.70364 5.67188 8.97979V9.38604C5.67188 9.66218 5.44802 9.88604 5.17188 9.88604H3.35938C3.08323 9.88604 2.85938 9.66218 2.85938 9.38604V8.97979ZM2.85938 13.1985C2.85938 12.9224 3.08323 12.6985 3.35938 12.6985H5.17188C5.44802 12.6985 5.67188 12.9224 5.67188 13.1985V13.6048C5.67188 13.8809 5.44802 14.1048 5.17188 14.1048H3.35938C3.08323 14.1048 2.85938 13.8809 2.85938 13.6048V13.1985ZM8.48438 16.4173C8.48438 16.6934 8.26052 16.9173 7.98438 16.9173H6.17188C5.89573 16.9173 5.67188 16.6934 5.67188 16.4173V16.011C5.67188 15.7349 5.89573 15.511 6.17188 15.511H7.98438C8.26052 15.511 8.48438 15.7349 8.48438 16.011V16.4173ZM7.57812 12.6985C7.30198 12.6985 7.07812 12.4747 7.07812 12.1985V11.7923C7.07812 11.5161 7.30198 11.2923 7.57812 11.2923H9.39062C9.66677 11.2923 9.89062 11.5161 9.89062 11.7923V12.1985C9.89062 12.4747 9.66677 12.6985 9.39062 12.6985H7.57812Z" fill="#393A40"/>
</svg>
