<svg width="25" height="24" viewBox="0 0 25 24" fill="none" xmlns="http://www.w3.org/2000/svg">
<path d="M22.0941 18.1003C15.985 18.0996 9.03631 18.1009 2.90589 18.1003C2.71297 18.1005 2.528 18.1773 2.39158 18.3137C2.25516 18.4501 2.17844 18.6351 2.17825 18.828V21.7722C2.17844 21.9652 2.25516 22.1501 2.39158 22.2865C2.528 22.423 2.71297 22.4997 2.90589 22.4999H4.02359C4.02313 22.0408 4.02391 20.9193 4.02359 20.4482C4.02527 20.3499 4.06552 20.2561 4.13568 20.1871C4.20584 20.1182 4.30028 20.0795 4.39866 20.0795C4.49704 20.0795 4.59148 20.1182 4.66163 20.1872C4.73179 20.2561 4.77203 20.3499 4.77371 20.4483C4.77416 20.9224 4.77338 22.0373 4.77371 22.4998H6.33772V21.3334C6.33757 21.2841 6.34715 21.2352 6.36593 21.1895C6.38471 21.1439 6.41231 21.1024 6.44715 21.0674C6.482 21.0325 6.5234 21.0048 6.56898 20.9858C6.61456 20.9669 6.66343 20.9572 6.71278 20.9572C6.76214 20.9572 6.811 20.9669 6.85658 20.9858C6.90217 21.0048 6.94357 21.0325 6.97841 21.0674C7.01325 21.1024 7.04085 21.1439 7.05963 21.1895C7.07841 21.2352 7.088 21.2841 7.08784 21.3334V22.4999H8.65186C8.64405 22.0413 8.65748 20.9189 8.65183 20.4482C8.65304 20.3496 8.6931 20.2553 8.76331 20.186C8.83352 20.1166 8.92823 20.0777 9.02691 20.0777C9.1256 20.0778 9.22031 20.1166 9.29051 20.186C9.36072 20.2554 9.40077 20.3496 9.40197 20.4483C9.40982 20.9234 9.39632 22.0366 9.40199 22.4998H10.966C10.9706 22.2302 10.9627 21.5951 10.966 21.3334C10.9674 21.2349 11.0076 21.1409 11.0777 21.0717C11.1479 21.0025 11.2425 20.9637 11.3411 20.9637C11.4396 20.9638 11.5342 21.0025 11.6044 21.0717C11.6745 21.1409 11.7147 21.2349 11.7161 21.3334V22.4998H13.2839C13.2852 22.0413 13.283 20.9189 13.2839 20.4482C13.2837 20.3989 13.2933 20.35 13.3121 20.3043C13.3309 20.2587 13.3585 20.2172 13.3933 20.1823C13.4282 20.1473 13.4696 20.1196 13.5152 20.1006C13.5607 20.0817 13.6096 20.072 13.659 20.072C13.7083 20.072 13.7572 20.0817 13.8028 20.1006C13.8483 20.1196 13.8897 20.1473 13.9246 20.1823C13.9594 20.2172 13.987 20.2587 14.0058 20.3043C14.0246 20.35 14.0342 20.3989 14.034 20.4482C14.0303 20.9225 14.0366 22.0373 14.034 22.4998H15.598V21.3334C15.5995 21.2349 15.6397 21.141 15.7099 21.0719C15.7801 21.0028 15.8746 20.964 15.9731 20.964C16.0716 20.964 16.1661 21.0028 16.2363 21.0719C16.3065 21.141 16.3467 21.235 16.3481 21.3334C16.3561 21.5929 16.3424 22.2338 16.3482 22.4999L17.9122 22.4999C17.9123 22.0415 17.9121 20.9187 17.9122 20.4482C17.9136 20.3497 17.9537 20.2557 18.0239 20.1865C18.0941 20.1174 18.1887 20.0786 18.2872 20.0786C18.3858 20.0786 18.4804 20.1174 18.5505 20.1865C18.6207 20.2557 18.6609 20.3497 18.6623 20.4483C18.6619 20.9224 18.6626 22.0374 18.6623 22.4998H20.2263V21.3334C20.2279 21.235 20.2681 21.1412 20.3383 21.0722C20.4085 21.0032 20.5029 20.9645 20.6014 20.9645C20.6998 20.9645 20.7943 21.0032 20.8644 21.0722C20.9346 21.1412 20.9748 21.235 20.9764 21.3334C20.9777 21.5921 20.9755 22.2343 20.9764 22.4999H22.0941C22.287 22.4997 22.472 22.423 22.6084 22.2865C22.7448 22.1501 22.8216 21.9652 22.8217 21.7722V18.828C22.8216 18.6351 22.7448 18.4501 22.6084 18.3137C22.472 18.1773 22.287 18.1005 22.0941 18.1003Z" fill="#393A40"/>
<path d="M6.30395 17.4292H8.85062C8.85126 17.0488 8.85014 16.2866 8.85062 15.9064C8.85183 15.8077 8.89189 15.7135 8.9621 15.6442C9.03231 15.5748 9.12702 15.5359 9.2257 15.5359C9.32439 15.5359 9.4191 15.5748 9.48931 15.6442C9.55951 15.7135 9.59956 15.8078 9.60076 15.9064V17.4292H11.8211C11.8207 17.0487 11.8215 16.2867 11.8211 15.9064C11.8225 15.8078 11.8626 15.7137 11.9328 15.6444C12.003 15.5752 12.0976 15.5364 12.1962 15.5364C12.2948 15.5364 12.3895 15.5752 12.4597 15.6445C12.5299 15.7137 12.57 15.8078 12.5713 15.9064C12.5704 16.2846 12.5719 17.0509 12.5713 17.4292H14.7916V15.9064C14.792 15.8072 14.8316 15.7121 14.9019 15.642C14.9722 15.5719 15.0674 15.5325 15.1667 15.5325C15.266 15.5325 15.3612 15.5719 15.4315 15.642C15.5018 15.7121 15.5414 15.8072 15.5418 15.9064V17.4292H17.7622C17.7596 17.0489 17.764 16.2866 17.7622 15.9064C17.7636 15.8079 17.8037 15.7138 17.8739 15.6446C17.9441 15.5754 18.0387 15.5366 18.1372 15.5366C18.2358 15.5366 18.3304 15.5754 18.4006 15.6446C18.4708 15.7138 18.5109 15.8079 18.5123 15.9064C18.5079 16.2844 18.5155 17.0513 18.5123 17.4292H20.7739C20.9243 17.4274 21.0709 17.3815 21.1955 17.2972C21.3201 17.2129 21.4172 17.0938 21.4747 16.9548C21.5322 16.8158 21.5477 16.663 21.5191 16.5153C21.4905 16.3676 21.4192 16.2315 21.314 16.124L6.84404 1.72156C6.73626 1.61701 6.60025 1.54628 6.45276 1.51808C6.30528 1.48989 6.15277 1.50546 6.01403 1.56287C5.87528 1.62029 5.75637 1.71704 5.67193 1.84121C5.5875 1.96538 5.54124 2.11154 5.53886 2.26167L5.53884 6.91242C5.91629 6.91615 6.66658 6.90972 7.04284 6.91245C7.14146 6.91373 7.23561 6.95382 7.30489 7.02401C7.37418 7.09421 7.41302 7.18887 7.41302 7.2875C7.41302 7.38613 7.37417 7.48079 7.30488 7.55099C7.23559 7.62118 7.14144 7.66126 7.04282 7.66254C6.66988 7.66458 5.91251 7.66107 5.53884 7.66254V10.5468C5.91603 10.5484 6.6666 10.5456 7.04284 10.5468C7.14142 10.5481 7.2355 10.5882 7.30473 10.6584C7.37396 10.7286 7.41277 10.8233 7.41277 10.9219C7.41276 11.0204 7.37395 11.1151 7.30471 11.1853C7.23548 11.2554 7.1414 11.2956 7.04282 11.2969C6.66983 11.298 5.91244 11.2961 5.53884 11.2969V14.1849H7.04284C7.0922 14.1847 7.14109 14.1943 7.18674 14.2131C7.23238 14.2319 7.27386 14.2595 7.30882 14.2943C7.34377 14.3291 7.3715 14.3705 7.39043 14.4161C7.40935 14.4617 7.41909 14.5106 7.41909 14.5599C7.41909 14.6093 7.40935 14.6581 7.39043 14.7037C7.3715 14.7493 7.34377 14.7907 7.30882 14.8256C7.27386 14.8604 7.23238 14.888 7.18674 14.9068C7.14109 14.9256 7.0922 14.9351 7.04284 14.935H5.53882V16.6678C5.539 16.7681 5.55893 16.8673 5.59749 16.9598C5.63605 17.0524 5.69248 17.1364 5.76354 17.2071C5.8346 17.2778 5.91891 17.3338 6.01164 17.3719C6.10437 17.41 6.2037 17.4295 6.30395 17.4292ZM8.63685 9.1778C8.63905 9.07321 8.67162 8.97152 8.7306 8.88513C8.78958 8.79873 8.87242 8.73135 8.96901 8.6912C9.06561 8.65105 9.1718 8.63986 9.27465 8.659C9.37749 8.67814 9.47255 8.72679 9.54823 8.799L14.1953 13.4272C14.268 13.5021 14.3173 13.5967 14.337 13.6992C14.3567 13.8018 14.3459 13.9078 14.306 14.0043C14.2662 14.1009 14.1989 14.1836 14.1126 14.2423C14.0262 14.3011 13.9246 14.3332 13.8202 14.3349H9.16945C9.09949 14.335 9.03022 14.3212 8.96558 14.2945C8.90094 14.2677 8.8422 14.2285 8.79274 14.179C8.74327 14.1296 8.70404 14.0708 8.67729 14.0062C8.65054 13.9416 8.6368 13.8723 8.63685 13.8023V9.1778Z" fill="#393A40"/>
<path d="M9.38712 9.69922V13.585H13.2912L9.38712 9.69922Z" fill="#393A40"/>
</svg>
