<svg width="24" height="24" viewBox="0 0 24 24" fill="none" xmlns="http://www.w3.org/2000/svg">
<g clip-path="url(#clip0_2098_150222)">
<path d="M23.7623 12.4424C23.4714 12.1853 23.027 12.213 22.7699 12.5039L22.7586 12.5167V12.024C22.7586 9.15033 21.6394 6.4486 19.6073 4.41649C17.5754 2.38457 14.8737 1.26561 12 1.26561C10.2642 1.26561 8.5393 1.68895 7.01164 2.48967C5.53361 3.26439 4.23631 4.39141 3.25999 5.74914C3.03331 6.06426 3.10508 6.50372 3.42039 6.7304C3.7357 6.95727 4.17515 6.88549 4.40184 6.57018C5.25108 5.38915 6.37938 4.4088 7.6646 3.73516C8.99157 3.03954 10.4907 2.67186 12 2.67186C17.1568 2.67186 21.3523 6.86736 21.3523 12.0242V12.5169L21.3408 12.5041C21.0837 12.213 20.6393 12.1855 20.3483 12.4426C20.0572 12.6996 20.0297 13.144 20.2868 13.435L21.5283 14.8405C21.6618 14.9916 21.8536 15.078 22.0553 15.078C22.2568 15.078 22.4487 14.9916 22.5822 14.8405L23.8237 13.435C24.0809 13.1439 24.0535 12.6995 23.7623 12.4424Z" fill="#393A40"/>
<path d="M20.5796 17.3152C20.2643 17.0885 19.8251 17.1601 19.5982 17.4754C18.749 18.6563 17.6207 19.6366 16.3354 20.3104C15.0085 21.0061 13.5092 21.3737 12 21.3737C6.84324 21.3737 2.64773 17.1782 2.64773 12.0214V11.5287L2.65927 11.5417C2.91635 11.8326 3.36075 11.8603 3.6517 11.603C3.94284 11.346 3.97031 10.9016 3.71323 10.6106L2.47177 9.20508C2.3381 9.05402 2.14639 8.96741 1.94479 8.96741C1.74319 8.96741 1.55111 9.05402 1.41781 9.20508L0.176173 10.6106C-0.0809074 10.9017 -0.0534416 11.346 0.237697 11.603C0.371364 11.7213 0.537441 11.7794 0.702968 11.7794C0.897427 11.7794 1.09115 11.699 1.23013 11.5417L1.24148 11.5287V12.0214C1.24148 14.8953 2.36062 17.5968 4.39273 19.6289C6.42466 21.661 9.12638 22.78 12 22.78C13.7357 22.78 15.4607 22.3566 16.9884 21.5559C18.4662 20.7812 19.7635 19.654 20.7399 18.2965C20.9666 17.9812 20.895 17.5419 20.5796 17.3152Z" fill="#393A40"/>
<path d="M5.06478 13.823C5.01644 14.003 5.04171 14.1949 5.13509 14.3564L6.54134 16.7922C6.63454 16.9537 6.78817 17.0715 6.96816 17.1198C7.14834 17.168 7.34023 17.1429 7.50173 17.0495L8.53573 16.4526C8.94864 16.7752 9.40622 17.04 9.89071 17.2366V18.4288C9.89071 18.817 10.2055 19.132 10.5938 19.132H13.4063C13.7945 19.132 14.1095 18.817 14.1095 18.4288V17.2366C14.594 17.04 15.0515 16.7752 15.4645 16.4526L16.4985 17.0495C16.6598 17.1427 16.8518 17.168 17.0318 17.1198C17.212 17.0715 17.3656 16.9537 17.4588 16.7922L18.8651 14.3564C18.9583 14.1949 18.9836 14.003 18.9354 13.823C18.8871 13.6428 18.7691 13.4892 18.6078 13.396L17.5716 12.7978C17.6072 12.5411 17.6251 12.2812 17.6251 12.0214C17.6251 11.7585 17.6068 11.4961 17.5704 11.2364L18.6078 10.6375C18.7693 10.5443 18.8871 10.3907 18.9354 10.2105C18.9836 10.0303 18.9583 9.83843 18.8651 9.67693L17.4588 7.24126C17.2647 6.90508 16.8346 6.7899 16.4985 6.984L15.4577 7.58495C15.0464 7.2647 14.5912 7.00176 14.1095 6.8062V5.60466C14.1095 5.21648 13.7947 4.90154 13.4063 4.90154H10.5938C10.2055 4.90154 9.89071 5.21648 9.89071 5.60466V6.8062C9.40915 7.00176 8.95376 7.2647 8.54269 7.58495L7.50173 6.984C7.16555 6.78972 6.73544 6.90508 6.54134 7.24126L5.13509 9.67693C5.04189 9.83843 5.01662 10.0305 5.06478 10.2105C5.11312 10.3907 5.23086 10.5443 5.39236 10.6375L6.42983 11.2364C6.39339 11.4961 6.37508 11.7585 6.37508 12.0214C6.37508 12.2812 6.39303 12.5409 6.42855 12.7978L5.39254 13.396C5.23086 13.4892 5.11312 13.6428 5.06478 13.823ZM12.0001 9.91204C13.165 9.91204 14.1095 10.8565 14.1095 12.0214C14.1095 13.1863 13.165 14.1308 12.0001 14.1308C10.835 14.1308 9.89071 13.1863 9.89071 12.0214C9.89071 10.8565 10.8352 9.91204 12.0001 9.91204Z" fill="#393A40"/>
</g>
<defs>
<clipPath id="clip0_2098_150222">
<rect width="24" height="24" fill="white"/>
</clipPath>
</defs>
</svg>
