<svg width="25" height="24" viewBox="0 0 25 24" fill="none" xmlns="http://www.w3.org/2000/svg">
<path d="M22.9082 18.2616L12.8442 23.91C12.6304 24.03 12.3698 24.03 12.1561 23.91L2.09199 18.2616C1.6134 17.9934 1.61434 17.303 2.09199 17.0353L4.59512 15.6305L11.4679 19.4878C12.1089 19.8479 12.8923 19.8474 13.5323 19.4878L20.4051 15.6305L22.9082 17.0353C23.3868 17.3034 23.3859 17.9939 22.9082 18.2616Z" fill="#393A40"/>
<path d="M22.9082 11.3869L20.4051 9.98203L13.5323 13.8394C12.8925 14.1989 12.1087 14.1994 11.4679 13.8394L4.59512 9.98203L2.09199 11.3869C1.61434 11.6545 1.6134 12.345 2.09199 12.6131L12.1561 18.2616C12.3698 18.3816 12.6304 18.3816 12.8442 18.2616L22.9082 12.6131C23.3859 12.3455 23.3868 11.655 22.9082 11.3869ZM6.28449 13.5384C5.8959 13.5384 5.58137 13.2234 5.58137 12.8353C5.58137 12.4467 5.8959 12.1322 6.28449 12.1322C6.67262 12.1322 6.98762 12.4467 6.98762 12.8353C6.98762 13.2234 6.67262 13.5384 6.28449 13.5384ZM9.2784 15.2798C8.8898 15.2798 8.57527 14.9648 8.57527 14.5767C8.57527 14.1881 8.8898 13.8736 9.2784 13.8736C9.66652 13.8736 9.98152 14.1881 9.98152 14.5767C9.98152 14.9648 9.66652 15.2798 9.2784 15.2798ZM12.5001 16.9111C12.112 16.9111 11.797 16.5966 11.797 16.208C11.797 15.8198 12.112 15.5048 12.5001 15.5048C12.8882 15.5048 13.2032 15.8198 13.2032 16.208C13.2032 16.5966 12.8882 16.9111 12.5001 16.9111ZM15.7218 15.2798C15.3337 15.2798 15.0187 14.9648 15.0187 14.5767C15.0187 14.1881 15.3337 13.8736 15.7218 13.8736C16.1104 13.8736 16.425 14.1881 16.425 14.5767C16.425 14.9648 16.1104 15.2798 15.7218 15.2798ZM18.7157 13.5384C18.3276 13.5384 18.0126 13.2234 18.0126 12.8353C18.0126 12.4467 18.3276 12.1322 18.7157 12.1322C19.1043 12.1322 19.4189 12.4467 19.4189 12.8353C19.4189 13.2234 19.1043 13.5384 18.7157 13.5384Z" fill="#393A40"/>
<path d="M22.9082 6.96469L12.8442 12.6131C12.6304 12.7331 12.3698 12.7331 12.1561 12.6131L2.09199 6.96469C1.6134 6.69656 1.61434 6.00609 2.09199 5.73844L12.1561 0.09C12.3699 -0.03 12.6304 -0.03 12.8442 0.09L22.9082 5.73844C23.3868 6.00656 23.3859 6.69703 22.9082 6.96469Z" fill="#393A40"/>
</svg>
