<svg width="25" height="24" viewBox="0 0 25 24" fill="none" xmlns="http://www.w3.org/2000/svg">
<g clip-path="url(#clip0_2098_150230)">
<path d="M17.0595 5.28614C17.0595 5.07905 17.2274 4.91114 17.4345 4.91114H19.5902C19.7973 4.91114 19.9652 5.07905 19.9652 5.28614C19.9652 5.49323 19.7973 5.66114 19.5902 5.66114H17.4345C17.2274 5.66114 17.0595 5.49328 17.0595 5.28614ZM24.4384 7.41703V10.8731C24.4384 12.2549 23.3143 13.379 21.9325 13.379H16.3335L15.7117 14.5787C15.5746 14.8433 15.3149 15.0012 15.0169 15.0012H8.38905C8.18528 15.0012 8.00041 14.8972 7.89452 14.7231C7.78867 14.549 7.78146 14.337 7.87521 14.1561L8.27791 13.379H3.06766C2.09946 13.379 1.31177 14.1667 1.31177 15.1349V18.5909C1.31177 19.5591 2.09946 20.3468 3.06766 20.3468H3.71781L4.33956 19.147C4.47667 18.8825 4.73636 18.7246 5.0343 18.7246H11.6622C11.8659 18.7246 12.0507 18.8285 12.1566 19.0026C12.2625 19.1768 12.2698 19.3887 12.176 19.5696L11.7733 20.3468H15.2992C15.4857 18.7412 16.8532 17.4905 18.5081 17.4905C20.2898 17.4905 21.7393 18.9401 21.7393 20.7218C21.7393 22.5035 20.2898 23.9531 18.5081 23.9531C16.8532 23.9531 15.4857 22.7025 15.2992 21.0968H11.3846L10.7628 22.2966C10.6257 22.5611 10.366 22.719 10.0681 22.719H3.44022C3.23641 22.719 3.05153 22.6151 2.94569 22.4409C2.83989 22.2669 2.83263 22.055 2.92633 21.8741L3.32913 21.0968H3.06766C1.68588 21.0968 0.561768 19.9727 0.561768 18.591V15.1349C0.561768 13.7531 1.68588 12.629 3.06766 12.629H8.66664L9.28839 11.4293C9.4255 11.1647 9.68524 11.0068 9.98318 11.0068H16.6111C16.8148 11.0068 16.9997 11.1107 17.1055 11.2848C17.2114 11.459 17.2187 11.6709 17.125 11.8518L16.7222 12.629H21.9326C22.9008 12.629 23.6884 11.8413 23.6884 10.8731V7.41708C23.6884 6.44887 22.9008 5.66119 21.9326 5.66119H21.2824L20.6606 6.86095C20.5236 7.12547 20.2638 7.28339 19.9659 7.28339H13.3379C13.1341 7.28339 12.9492 7.17942 12.8434 7.00523C12.7376 6.83119 12.7303 6.61922 12.8241 6.43833L13.2269 5.66114H11.0404V6.09787C11.0404 6.30497 10.8725 6.47287 10.6654 6.47287H10.1477C10.048 6.83944 9.90274 7.18997 9.7135 7.52025L10.0798 7.88658C10.1501 7.95689 10.1897 8.05228 10.1897 8.15175C10.1897 8.25122 10.1501 8.34661 10.0798 8.41692L8.93186 9.56489C8.78543 9.71137 8.548 9.71137 8.40157 9.56489L8.03524 9.19856C7.7051 9.38775 7.35457 9.53306 6.98786 9.63272V10.1505C6.98786 10.3576 6.81996 10.5255 6.61286 10.5255H4.98935C4.78225 10.5255 4.61435 10.3576 4.61435 10.1505V9.63276C4.24774 9.53311 3.89725 9.3878 3.56702 9.19856L3.20064 9.56494C3.13033 9.63525 3.03494 9.67477 2.93547 9.67477C2.836 9.67477 2.74061 9.63525 2.6703 9.56494L1.52233 8.41697C1.37585 8.27053 1.37589 8.03311 1.52233 7.88667L1.88866 7.52034C1.69947 7.1902 1.55421 6.83967 1.45455 6.47302H0.936768C0.729674 6.47302 0.561768 6.30511 0.561768 6.09802V4.47445C0.561768 4.26736 0.729674 4.09945 0.936768 4.09945H1.45455C1.55416 3.73284 1.69947 3.38236 1.88871 3.05212L1.52238 2.68575C1.45206 2.61544 1.41255 2.52005 1.41255 2.42058C1.41255 2.32111 1.45206 2.22572 1.52238 2.15541L2.67035 1.00748C2.81678 0.861047 3.05421 0.861047 3.20064 1.00748L3.56697 1.37377C3.89711 1.18458 4.24764 1.03927 4.61435 0.939609V0.421875C4.61435 0.214781 4.78225 0.046875 4.98935 0.046875H6.61282C6.81991 0.046875 6.98782 0.214781 6.98782 0.421875V0.939563C7.35442 1.03917 7.70491 1.18448 8.03519 1.37372L8.40152 1.00739C8.47183 0.937078 8.56722 0.897563 8.66669 0.897563C8.76616 0.897563 8.86155 0.937078 8.93186 1.00739L10.0798 2.15536C10.1501 2.22567 10.1897 2.32106 10.1897 2.42053C10.1897 2.52 10.1501 2.61539 10.0798 2.6857L9.7135 3.05198C9.90269 3.38213 10.048 3.73266 10.1477 4.09941H10.6654C10.8725 4.09941 11.0404 4.26731 11.0404 4.47441V4.91109H13.6156L14.2373 3.71138C14.3744 3.44686 14.6341 3.28894 14.932 3.28894H21.5599C21.7637 3.28894 21.9486 3.39286 22.0544 3.567C22.1603 3.74119 22.1675 3.9532 22.0737 4.13414L21.671 4.91114H21.9325C23.3143 4.91114 24.4384 6.03525 24.4384 7.41703ZM10.2903 4.84945H9.85085C9.67202 4.84945 9.51808 4.72317 9.48311 4.54781C9.38702 4.06617 9.1998 3.61434 8.92652 3.20498C8.82724 3.05625 8.84678 2.85806 8.97325 2.73164L9.28432 2.42058L8.66664 1.80291L8.35558 2.11397C8.22916 2.24048 8.03107 2.25998 7.88228 2.16075C7.4726 1.88737 7.02081 1.70011 6.5395 1.60416C6.3641 1.56919 6.23781 1.41525 6.23781 1.23637V0.796875H5.36435V1.23637C5.36435 1.4152 5.23806 1.56914 5.06271 1.60411C4.58111 1.70016 4.12933 1.88742 3.71992 2.1607C3.57119 2.26003 3.37305 2.24044 3.24658 2.11397L2.93552 1.80291L2.31785 2.42058L2.62891 2.73169C2.75533 2.85811 2.77492 3.05625 2.67569 3.20498C2.40231 3.61462 2.2151 4.06641 2.11914 4.54777C2.08417 4.72317 1.93024 4.84945 1.75136 4.84945H1.31177V5.72292H1.75136C1.93019 5.72292 2.08413 5.8492 2.11914 6.02461C2.21514 6.50616 2.40241 6.95794 2.67569 7.36739C2.77497 7.51613 2.75538 7.71427 2.62891 7.84073L2.3178 8.15184L2.93542 8.76952L3.24653 8.45841C3.373 8.33194 3.57114 8.31244 3.71983 8.41162C4.12947 8.685 4.58125 8.87227 5.06261 8.96822C5.23802 9.00319 5.3643 9.15712 5.3643 9.336V9.77555H6.23777V9.336C6.23777 9.15717 6.36405 9.00323 6.53946 8.96822C7.021 8.87222 7.47283 8.68495 7.88224 8.41167C8.03097 8.31239 8.22911 8.33194 8.35558 8.45841L8.66669 8.76952L9.28432 8.15189L8.97325 7.84083C8.84683 7.71441 8.82724 7.51627 8.92647 7.36753C9.19985 6.9578 9.38711 6.50602 9.48306 6.02475C9.51803 5.84934 9.67197 5.72306 9.85085 5.72306H10.2904V4.84945H10.2903ZM21.2783 4.03898H14.932C14.916 4.03898 14.9106 4.04227 14.9032 4.05656L13.6195 6.53334H19.9658C19.9819 6.53334 19.9873 6.53006 19.9946 6.51581L21.2783 4.03898ZM16.9619 20.9259L17.8817 21.8226C17.9546 21.8936 18.049 21.929 18.1434 21.929C18.24 21.929 18.3365 21.8919 18.4098 21.8179L20.0589 20.1534C20.2046 20.0063 20.2035 19.7689 20.0564 19.6231C19.9093 19.4774 19.6719 19.4784 19.5261 19.6256L18.1389 21.0259L17.4854 20.3889C17.3371 20.2443 17.0996 20.2473 16.9551 20.3957C16.8106 20.544 16.8136 20.7814 16.9619 20.9259ZM3.7218 21.969H10.0681C10.0841 21.969 10.0895 21.9657 10.0969 21.9514L11.3806 19.4746H5.0343C5.01822 19.4746 5.01283 19.4779 5.00542 19.4922L3.7218 21.969ZM16.3294 11.7568H9.98318C9.9671 11.7568 9.96171 11.7601 9.9543 11.7744L8.67072 14.2512H15.0169C15.033 14.2512 15.0384 14.2479 15.0458 14.2336L16.3294 11.7568ZM5.80108 2.38167C4.19955 2.38167 2.89666 3.68461 2.89666 5.28614C2.89666 6.88767 4.1996 8.19056 5.80108 8.19056C7.40257 8.19056 8.7055 6.88763 8.7055 5.28614C8.70555 3.68461 7.40261 2.38167 5.80108 2.38167ZM15.3077 5.66114H15.731C15.9381 5.66114 16.106 5.49323 16.106 5.28614C16.106 5.07905 15.9381 4.91114 15.731 4.91114H15.3077C15.1006 4.91114 14.9327 5.07905 14.9327 5.28614C14.9327 5.49323 15.1005 5.66114 15.3077 5.66114ZM10.3588 13.379H10.7822C10.9893 13.379 11.1572 13.2111 11.1572 13.004C11.1572 12.7969 10.9893 12.629 10.7822 12.629H10.3588C10.1517 12.629 9.98378 12.7969 9.98378 13.004C9.98378 13.2111 10.1516 13.379 10.3588 13.379ZM5.83328 20.3468H5.40991C5.20281 20.3468 5.03491 20.5147 5.03491 20.7218C5.03491 20.9289 5.20281 21.0968 5.40991 21.0968H5.83328C6.04038 21.0968 6.20828 20.9289 6.20828 20.7218C6.20828 20.5147 6.04038 20.3468 5.83328 20.3468ZM9.6925 20.3468H7.53677C7.32967 20.3468 7.16177 20.5147 7.16177 20.7218C7.16177 20.9289 7.32967 21.0968 7.53677 21.0968H9.6925C9.8996 21.0968 10.0675 20.9289 10.0675 20.7218C10.0675 20.5147 9.8996 20.3468 9.6925 20.3468ZM12.4856 13.379H14.6413C14.8484 13.379 15.0163 13.2111 15.0163 13.004C15.0163 12.7969 14.8484 12.629 14.6413 12.629H12.4856C12.2786 12.629 12.1106 12.7969 12.1106 13.004C12.1106 13.2111 12.2785 13.379 12.4856 13.379Z" fill="#393A40"/>
</g>
<defs>
<clipPath id="clip0_2098_150230">
<rect width="24" height="24" fill="white" transform="translate(0.5)"/>
</clipPath>
</defs>
</svg>
