<svg width="80" height="80" viewBox="0 0 80 80" fill="none" xmlns="http://www.w3.org/2000/svg">
<rect width="80" height="80" rx="8" fill="#564073" fill-opacity="0.35"/>
<g clip-path="url(#clip0_2072_32347)">
<path d="M31.5625 51.3125H33.4375V53.1875H31.5625V51.3125Z" fill="#564073"/>
<path d="M39.0625 51.3125H40.9375V53.1875H39.0625V51.3125Z" fill="#564073"/>
<path d="M46.5625 51.3125H48.4375V53.1875H46.5625V51.3125Z" fill="#564073"/>
<path d="M54.7516 36.8656L40 42.0516V37.75C40 37.0883 39.3313 36.6341 38.7156 36.879L24.5906 42.504C24.234 42.6461 24 42.9911 24 43.375V52.25C24 52.7677 24.4197 53.1875 24.9375 53.1875H29.6875V50.375C29.6875 49.8573 30.1073 49.4375 30.625 49.4375H34.375C34.8927 49.4375 35.3125 49.8573 35.3125 50.375V53.1875H37.1875V50.375C37.1875 49.8573 37.6073 49.4375 38.125 49.4375H41.875C42.3927 49.4375 42.8125 49.8573 42.8125 50.375V53.1875H44.6875V50.375C44.6875 49.8573 45.1073 49.4375 45.625 49.4375H49.375C49.8927 49.4375 50.3125 49.8573 50.3125 50.375V53.1875H55.0625C55.5802 53.1875 56 52.7677 56 52.25V37.75C56 37.1062 55.3629 36.6505 54.7516 36.8656Z" fill="#564073"/>
<path d="M36.25 27.75C36.25 27.2322 35.8302 26.8125 35.3125 26.8125H29.6875C29.1697 26.8125 28.75 27.2322 28.75 27.75V30.5625H36.25V27.75Z" fill="#564073"/>
<path d="M51.25 27.75C51.25 27.2322 50.8302 26.8125 50.3125 26.8125H44.6875C44.1697 26.8125 43.75 27.2322 43.75 27.75V30.5625H51.25V27.75Z" fill="#564073"/>
<path d="M36.25 32.4375H28.75V38.8294L36.25 35.8427V32.4375Z" fill="#564073"/>
<path d="M51.25 32.4375H43.75V38.7458L51.25 36.1091V32.4375Z" fill="#564073"/>
</g>
<defs>
<clipPath id="clip0_2072_32347">
<rect width="32" height="32" fill="white" transform="translate(24 24)"/>
</clipPath>
</defs>
</svg>
