<svg width="80" height="80" viewBox="0 0 80 80" fill="none" xmlns="http://www.w3.org/2000/svg">
<rect width="80" height="80" rx="8" fill="#564073" fill-opacity="0.35"/>
<g clip-path="url(#clip0_2086_141092)">
<path fill-rule="evenodd" clip-rule="evenodd" d="M49.2003 27.7024H53.7573V32.3248H49.2003V27.7024ZM40.0742 55H55.25V49.9771H40.0742V55ZM43.659 40.7028V48.9771H55.25V40.7028H43.659ZM47.5544 46.7024C47.5544 46.9433 47.3579 47.1399 47.1169 47.1399H46.192C45.9511 47.1399 45.7545 46.9433 45.7545 46.7024V45.7774C45.7545 45.5365 45.9511 45.3399 46.192 45.3399H47.1169C47.3579 45.3399 47.5544 45.5364 47.5544 45.7774V46.7024ZM47.5544 43.9024C47.5544 44.1434 47.3579 44.3399 47.1169 44.3399H46.192C45.9511 44.3399 45.7545 44.1434 45.7545 43.9024V42.9775C45.7545 42.7366 45.9511 42.54 46.192 42.54H47.1169C47.3579 42.54 47.5544 42.7366 47.5544 42.9775V43.9024ZM50.3543 46.7024C50.3543 46.9433 50.1578 47.1399 49.9168 47.1399H48.9919C48.7509 47.1399 48.5544 46.9433 48.5544 46.7024V45.7774C48.5544 45.5365 48.7509 45.3399 48.9919 45.3399H49.9168C50.1578 45.3399 50.3543 45.5364 50.3543 45.7774V46.7024ZM50.3543 43.9024C50.3543 44.1434 50.1578 44.3399 49.9168 44.3399H48.9919C48.7509 44.3399 48.5544 44.1434 48.5544 43.9024V42.9775C48.5544 42.7366 48.7509 42.54 48.9919 42.54H49.9168C50.1578 42.54 50.3543 42.7366 50.3543 42.9775V43.9024ZM53.1543 46.7024C53.1543 46.9433 52.9578 47.1399 52.7168 47.1399H51.7918C51.5509 47.1399 51.3543 46.9433 51.3543 46.7024V45.7774C51.3543 45.5365 51.5509 45.3399 51.7918 45.3399H52.7168C52.9578 45.3399 53.1543 45.5364 53.1543 45.7774V46.7024ZM53.1543 43.9024C53.1543 44.1434 52.9578 44.3399 52.7168 44.3399H51.7918C51.5509 44.3399 51.3543 44.1434 51.3543 43.9024V42.9775C51.3543 42.7366 51.5509 42.54 51.7918 42.54H52.7168C52.9578 42.54 53.1543 42.7366 53.1543 42.9775V43.9024ZM47.7076 33.3247V39.7028H55.25V33.3247H47.7076ZM50.9788 36.8717C50.9788 37.1127 50.7823 37.3092 50.5413 37.3092H49.8254C49.5844 37.3092 49.3879 37.1128 49.3879 36.8717V36.1558C49.3879 35.9148 49.5844 35.7183 49.8254 35.7183H50.5413C50.7823 35.7183 50.9788 35.9148 50.9788 36.1558V36.8717ZM53.5697 36.8717C53.5697 37.1127 53.3732 37.3092 53.1322 37.3092H52.4163C52.1753 37.3092 51.9788 37.1128 51.9788 36.8717V36.1558C51.9788 35.9148 52.1753 35.7183 52.4163 35.7183H53.1322C53.3732 35.7183 53.5697 35.9148 53.5697 36.1558V36.8717ZM47.6248 31.7954L45.1547 29.7294C45.0652 29.6454 44.9449 29.5939 44.8124 29.5939H44.0326L34.9136 25.2064V25C34.9136 24.7239 34.6897 24.5 34.4136 24.5L32.7077 24.5006C32.4869 24.5004 32.2849 24.6478 32.2253 24.8711L32.0926 25.3617L27.7499 28.8622H25.25C24.9739 28.8622 24.75 29.0861 24.75 29.3622V32.91C24.75 33.1861 24.9739 33.41 25.25 33.41H28.7977C29.0739 33.41 29.2977 33.1861 29.2977 32.91V32.6783H30.5018V52.1488H28.8134C28.5373 52.1488 28.3134 52.3726 28.3134 52.6488V55C28.3134 55.2761 28.5373 55.5 28.8134 55.5H36.602C36.8781 55.5 37.102 55.2761 37.102 55V52.6487C37.102 52.3726 36.8781 52.1487 36.602 52.1487H34.9136V32.6783H44.2167V34.8579H43.3241C43.048 34.8579 42.8241 35.0817 42.8241 35.3579V38.1431C42.8241 38.4192 43.048 38.6431 43.3241 38.6431H46.1094C46.3855 38.6431 46.6094 38.4192 46.6094 38.1431V35.3579C46.6094 35.0817 46.3855 34.8579 46.1094 34.8579H45.2167V32.6783L47.3046 32.6774C47.4472 32.6773 47.5887 32.6165 47.6874 32.4986C47.8642 32.2871 47.8363 31.9723 47.6248 31.7954ZM33.0898 25.5H33.9136V29.5939H31.9831L33.0898 25.5ZM29.1541 29.0115L31.6498 26.9998L30.9485 29.5939H29.2977V29.3622C29.2977 29.2256 29.2429 29.1017 29.1541 29.0115ZM30.2943 31.3993L29.7438 30.5939H31.0996L30.2943 31.3993ZM32.3066 30.8009L33.1839 31.6782H31.4294L32.3066 30.8009ZM31.5017 33.3853L33.7065 35.5899L31.5017 37.7946V33.3853ZM33.7065 42.4134L31.5017 44.6182V40.2087L33.7065 42.4134ZM31.5017 47.0322L33.7065 49.237L31.5017 51.4417V47.0322ZM33.9136 52.1487H32.2088L33.9136 50.4439V52.1487ZM33.9136 48.0299L31.7089 45.8253L33.9136 43.6205V48.0299ZM33.9136 41.2064L31.7089 39.0017L33.9136 36.7971V41.2064ZM33.9136 34.3829L32.2088 32.6782H33.9136V34.3829ZM34.3909 31.4712L33.5137 30.5939H35.2682L34.3909 31.4712ZM35.5979 31.6782L36.4752 30.801L37.3525 31.6782H35.5979ZM38.5595 31.4712L37.6823 30.5939H39.4368L38.5595 31.4712ZM39.7666 31.6782L40.6439 30.801L41.5211 31.6782H39.7666ZM34.9135 29.5939V26.3116L41.7355 29.5939H34.9135ZM42.7281 31.4712L41.8508 30.5939H43.6054L42.7281 31.4712ZM44.7167 31.6782H43.9352L44.8431 30.7703L45.9287 31.6782H44.7167Z" fill="#564073"/>
</g>
<defs>
<clipPath id="clip0_2086_141092">
<rect width="32" height="32" fill="white" transform="translate(24 24)"/>
</clipPath>
</defs>
</svg>
